<svg width="403" height="331" viewBox="0 0 403 331" fill="none" xmlns="http://www.w3.org/2000/svg">
<g clip-path="url(#clip0_161_128)">
<path d="M234.15 58.3744C208.314 57.351 183.688 47.8439 160.208 37.4445C136.729 27.0451 113.457 15.5208 88.2263 10.0103C72.0043 6.46206 53.4522 5.96302 40.3841 15.8761C27.8058 25.4127 23.7429 41.8767 21.5575 57.1522C19.9137 68.6469 18.9602 80.7422 23.4535 91.5053C26.5814 98.9739 32.1322 105.254 35.9724 112.41C49.33 137.307 39.8869 168.01 25.4089 192.34C18.6188 203.759 10.7416 214.623 5.50246 226.765C0.263343 238.907 -2.16327 252.816 2.42281 265.199C6.96808 277.464 17.7951 286.692 29.5274 293.175C53.3558 306.332 81.4325 310.095 108.812 312.252C169.418 316.976 230.35 314.929 291.116 312.882C313.605 312.121 336.194 311.356 358.315 307.385C370.601 305.181 383.286 301.688 392.206 293.255C403.527 282.547 406.336 264.421 398.748 250.994C386.021 228.478 350.835 222.883 341.938 198.718C337.043 185.417 342.071 170.598 349.188 158.262C364.449 131.8 390.036 108.582 391.383 78.3316C392.31 57.554 380.01 36.751 360.991 26.9183C341.058 16.6035 313.415 17.906 298.711 34.9536C283.569 52.5171 256.958 59.2752 234.15 58.3744Z" fill="#021E49"/>
<path d="M89.8848 306.628C89.8848 306.628 69.4775 289.043 65.6224 266.675C64.059 257.281 59.8656 248.717 53.6711 242.269C50.7078 239.236 47.5072 236.518 44.1094 234.149" stroke="#535461" stroke-width="2" stroke-miterlimit="10"/>
<path d="M41.6123 220.058C43.4007 222.815 44.2096 234.5 44.2096 234.5C44.2096 234.5 34.6479 230.208 32.8557 227.454C31.9952 226.131 31.6311 224.472 31.8437 222.843C32.0563 221.213 32.8281 219.747 33.9893 218.766C35.1505 217.785 36.606 217.37 38.0356 217.612C39.4652 217.855 40.7518 218.734 41.6123 220.058Z" fill="#FFF5E7"/>
<path d="M58.762 229.226C58.9475 232.648 54.0609 242.958 54.0609 242.958C54.0609 242.958 48.076 233.426 47.8868 230.005C47.8148 228.373 48.3096 226.776 49.264 225.558C50.2183 224.339 51.5554 223.599 52.9854 223.497C54.4154 223.394 55.8232 223.938 56.9038 225.011C57.9844 226.083 58.6507 227.598 58.7583 229.226H58.762Z" fill="#FFF5E7"/>
<path d="M75.3846 255.582C74.034 258.644 65.2441 264.734 65.2441 264.734C65.2441 264.734 64.3053 253.062 65.6559 250C66.3208 248.56 67.455 247.475 68.8145 246.979C70.1741 246.482 71.6502 246.614 72.9253 247.346C74.2004 248.078 75.1725 249.351 75.6325 250.891C76.0924 252.431 76.0034 254.116 75.3846 255.582Z" fill="#FFF5E7"/>
<path d="M84.0263 278.741C83.1469 282.018 75.3884 289.711 75.3884 289.711C75.3884 289.711 72.7281 278.39 73.6074 275.108C74.0301 273.533 74.9843 272.214 76.2601 271.441C77.5359 270.669 79.0289 270.505 80.4105 270.987C81.7921 271.468 82.9493 272.556 83.6274 274.01C84.3054 275.464 84.449 277.166 84.0263 278.741Z" fill="#003485"/>
<path d="M45.2152 251.247C48.1836 251.704 57.5672 246.874 57.5672 246.874C57.5672 246.874 49.6492 239.397 46.666 238.941C45.2342 238.721 43.7846 239.159 42.6361 240.158C41.4876 241.157 40.7343 242.635 40.5419 244.267C40.3496 245.899 40.7338 247.551 41.6102 248.861C42.4867 250.17 43.7834 251.028 45.2152 251.247Z" fill="#FFF5E7"/>
<path d="M55.6228 278.191C58.5912 277.612 66.2606 269.809 66.2606 269.809C66.2606 269.809 56.7396 265.377 53.775 265.956C53.0652 266.089 52.3855 266.38 51.7751 266.814C51.1647 267.248 50.6357 267.815 50.2186 268.483C49.8015 269.151 49.5046 269.906 49.345 270.705C49.1854 271.505 49.1663 272.332 49.2888 273.14C49.4113 273.948 49.673 274.72 50.0587 275.412C50.4444 276.104 50.9465 276.702 51.5361 277.172C52.1257 277.641 52.791 277.973 53.4937 278.148C54.1964 278.323 54.9226 278.338 55.6302 278.191H55.6228Z" fill="#FFF5E7"/>
<path d="M68.8876 302.8C71.8968 302.8 80.6163 296.588 80.6163 296.588C80.6163 296.588 71.8931 290.384 68.8839 290.384C67.4393 290.384 66.0539 291.038 65.0324 292.202C64.0109 293.366 63.437 294.945 63.437 296.592C63.437 298.238 64.0109 299.818 65.0324 300.982C66.0539 302.146 67.4393 302.8 68.8839 302.8H68.8876Z" fill="#FFF5E7"/>
<path d="M288.133 154.536C288.133 154.536 300.711 129.14 319.671 121.824C327.633 118.81 334.523 112.935 339.307 105.081C341.551 101.326 343.487 97.3434 345.091 93.1843" stroke="#535461" stroke-width="2" stroke-miterlimit="10"/>
<path d="M356.994 88.5322C354.835 90.9175 344.783 93.3873 344.783 93.3873C344.783 93.3873 347.251 82.0109 349.41 79.6215C350.453 78.5092 351.837 77.9079 353.264 77.947C354.691 77.9861 356.048 78.6626 357.043 79.8307C358.037 80.9988 358.589 82.5652 358.58 84.1927C358.571 85.8202 358.002 87.3785 356.994 88.5322Z" fill="#003485"/>
<path d="M351.31 109.098C348.342 109.767 338.743 105.614 338.743 105.614C338.743 105.614 346.238 97.5784 349.188 96.9228C349.896 96.7437 350.629 96.7276 351.342 96.8756C352.056 97.0235 352.737 97.3325 353.344 97.7844C353.952 98.2363 354.474 98.8219 354.881 99.507C355.287 100.192 355.569 100.963 355.71 101.774C355.852 102.585 355.85 103.42 355.704 104.23C355.558 105.04 355.272 105.809 354.862 106.491C354.452 107.174 353.927 107.756 353.317 108.203C352.707 108.651 352.025 108.955 351.31 109.098Z" fill="#003485"/>
<path d="M330.621 131.377C327.779 130.257 321.319 121.139 321.319 121.139C321.319 121.139 331.337 118.525 334.187 119.646C334.871 119.905 335.504 120.316 336.048 120.856C336.592 121.396 337.037 122.053 337.356 122.791C337.675 123.528 337.863 124.33 337.908 125.151C337.953 125.971 337.855 126.794 337.618 127.571C337.382 128.347 337.013 129.063 336.532 129.676C336.052 130.289 335.469 130.787 334.818 131.141C334.167 131.495 333.461 131.699 332.74 131.739C332.02 131.78 331.299 131.657 330.621 131.377Z" fill="#003485"/>
<path d="M311.609 144.217C308.64 143.659 300.938 135.898 300.938 135.898C300.938 135.898 310.432 131.39 313.397 131.948C314.824 132.216 316.099 133.119 316.942 134.458C317.785 135.797 318.127 137.463 317.892 139.089C317.658 140.716 316.866 142.169 315.691 143.13C314.516 144.091 313.054 144.48 311.627 144.213L311.609 144.217Z" fill="#003485"/>
<path d="M330.361 96.7198C330.357 100.15 335.815 110.101 335.815 110.101C335.815 110.101 341.266 100.162 341.266 96.7368C341.285 95.9081 341.158 95.0835 340.893 94.3116C340.628 93.5397 340.23 92.8362 339.722 92.2424C339.215 91.6487 338.608 91.1768 337.938 90.8546C337.268 90.5324 336.548 90.3664 335.821 90.3664C335.094 90.3664 334.374 90.5324 333.704 90.8546C333.034 91.1768 332.427 91.6487 331.92 92.2424C331.412 92.8362 331.014 93.5397 330.749 94.3116C330.484 95.0835 330.357 95.9081 330.376 96.7368L330.361 96.7198Z" fill="#003485"/>
<path d="M308.31 112.055C309.208 115.328 317.015 122.962 317.015 122.962C317.015 122.962 319.612 111.619 318.707 108.346C318.237 106.829 317.27 105.579 316.008 104.86C314.746 104.14 313.289 104.006 311.942 104.487C310.596 104.968 309.465 106.025 308.789 107.437C308.113 108.848 307.944 110.504 308.318 112.055H308.31Z" fill="#003485"/>
<path d="M288.693 130.312C289.094 133.695 295.654 142.733 295.654 142.733C295.654 142.733 299.887 132.054 299.487 128.658C299.407 127.835 299.184 127.039 298.83 126.316C298.477 125.593 298 124.957 297.428 124.448C296.856 123.938 296.2 123.563 295.499 123.346C294.798 123.129 294.067 123.074 293.347 123.185C292.627 123.295 291.934 123.568 291.308 123.988C290.682 124.408 290.137 124.967 289.703 125.631C289.269 126.295 288.957 127.051 288.783 127.855C288.61 128.659 288.579 129.494 288.693 130.312Z" fill="#003485"/>
<path d="M356.994 88.5322C354.835 90.9175 344.783 93.3873 344.783 93.3873C344.783 93.3873 347.251 82.0109 349.41 79.6215C350.453 78.5092 351.837 77.9079 353.264 77.947C354.691 77.9861 356.048 78.6626 357.043 79.8307C358.037 80.9988 358.589 82.5652 358.58 84.1927C358.571 85.8202 358.002 87.3785 356.994 88.5322Z" fill="#FCF6F5"/>
<path d="M351.31 109.098C348.342 109.767 338.743 105.614 338.743 105.614C338.743 105.614 346.238 97.5784 349.188 96.9228C349.896 96.7437 350.629 96.7276 351.342 96.8756C352.056 97.0235 352.737 97.3325 353.344 97.7844C353.952 98.2363 354.474 98.8219 354.881 99.507C355.287 100.192 355.569 100.963 355.71 101.774C355.852 102.585 355.85 103.42 355.704 104.23C355.558 105.04 355.272 105.809 354.862 106.491C354.452 107.174 353.927 107.756 353.317 108.203C352.707 108.651 352.025 108.955 351.31 109.098Z" fill="#FCF6F5"/>
<path d="M330.621 131.377C327.779 130.257 321.319 121.139 321.319 121.139C321.319 121.139 331.337 118.525 334.187 119.646C334.871 119.905 335.504 120.316 336.048 120.856C336.592 121.396 337.037 122.053 337.356 122.791C337.675 123.528 337.863 124.33 337.908 125.151C337.953 125.971 337.855 126.794 337.618 127.571C337.382 128.347 337.013 129.063 336.532 129.676C336.052 130.289 335.469 130.787 334.818 131.141C334.167 131.495 333.461 131.699 332.74 131.739C332.02 131.78 331.299 131.657 330.621 131.377Z" fill="#FCF6F5"/>
<path opacity="0.25" d="M311.609 144.217C308.64 143.659 300.938 135.898 300.938 135.898C300.938 135.898 310.432 131.39 313.397 131.948C314.824 132.216 316.099 133.119 316.942 134.458C317.785 135.797 318.127 137.463 317.892 139.089C317.658 140.716 316.866 142.169 315.691 143.13C314.516 144.091 313.054 144.48 311.627 144.213L311.609 144.217Z" fill="black"/>
<path d="M330.361 96.7198C330.357 100.15 335.815 110.101 335.815 110.101C335.815 110.101 341.266 100.162 341.266 96.7368C341.285 95.9081 341.158 95.0835 340.893 94.3116C340.628 93.5397 340.23 92.8362 339.722 92.2424C339.215 91.6487 338.608 91.1768 337.938 90.8546C337.268 90.5324 336.548 90.3664 335.821 90.3664C335.094 90.3664 334.374 90.5324 333.704 90.8546C333.034 91.1768 332.427 91.6487 331.92 92.2424C331.412 92.8362 331.014 93.5397 330.749 94.3116C330.484 95.0835 330.357 95.9081 330.376 96.7368L330.361 96.7198Z" fill="#FCF6F5"/>
<path opacity="0.25" d="M308.31 112.055C309.208 115.328 317.015 122.962 317.015 122.962C317.015 122.962 319.612 111.619 318.707 108.346C318.237 106.829 317.27 105.579 316.008 104.86C314.746 104.14 313.289 104.006 311.942 104.487C310.596 104.968 309.465 106.025 308.789 107.437C308.113 108.848 307.944 110.504 308.318 112.055H308.31Z" fill="black"/>
<path opacity="0.25" d="M288.693 130.312C289.094 133.695 295.654 142.733 295.654 142.733C295.654 142.733 299.887 132.054 299.487 128.658C299.407 127.835 299.184 127.039 298.83 126.316C298.477 125.593 298 124.957 297.428 124.448C296.856 123.938 296.2 123.563 295.499 123.346C294.798 123.129 294.067 123.074 293.347 123.185C292.627 123.295 291.934 123.568 291.308 123.988C290.682 124.408 290.137 124.967 289.703 125.631C289.269 126.295 288.957 127.051 288.783 127.855C288.61 128.659 288.579 129.494 288.693 130.312Z" fill="black"/>
<path d="M288.856 154.033C288.856 154.033 291.328 125.004 306.043 109.568C312.25 103.135 316.46 94.5817 318.043 85.1912C318.763 80.7271 319.122 76.197 319.115 71.6581" stroke="#535461" stroke-width="2" stroke-miterlimit="10"/>
<path d="M328.339 61.8635C327.226 65.0438 318.9 71.9457 318.9 71.9457C318.9 71.9457 317.111 60.4044 318.235 57.2241C318.777 55.697 319.828 54.4776 321.158 53.8339C322.488 53.1903 323.988 53.1753 325.328 53.7922C326.668 54.4091 327.738 55.6074 328.302 57.1234C328.867 58.6395 328.88 60.3491 328.339 61.8762V61.8635Z" fill="#FFF5E7"/>
<path d="M330.457 83.3135C327.997 85.2843 317.731 85.9313 317.731 85.9313C317.731 85.9313 321.731 75.1302 324.191 73.1594C324.774 72.6617 325.439 72.3026 326.146 72.1031C326.854 71.9037 327.589 71.8681 328.309 71.9984C329.028 72.1287 329.718 72.4223 330.336 72.8617C330.955 73.3012 331.489 73.8776 331.909 74.5568C332.328 75.2361 332.624 76.0043 332.778 76.8161C332.932 77.6278 332.942 78.4666 332.806 79.2828C332.671 80.0989 332.394 80.8758 331.99 81.5674C331.587 82.259 331.065 82.8514 330.457 83.3093V83.3135Z" fill="#FFF5E7"/>
<path d="M319.452 113.247C316.454 113.535 307.304 108.172 307.304 108.172C307.304 108.172 315.542 101.152 318.54 100.864C319.979 100.726 321.408 101.246 322.512 102.309C323.615 103.372 324.303 104.89 324.424 106.531C324.545 108.172 324.09 109.801 323.157 111.059C322.225 112.317 320.892 113.101 319.452 113.239V113.247Z" fill="#FFF5E7"/>
<path d="M306.648 133.754C303.735 134.6 293.925 131.103 293.925 131.103C293.925 131.103 301.001 122.598 303.913 121.735C305.312 121.322 306.797 121.558 308.042 122.393C309.287 123.228 310.19 124.592 310.553 126.186C310.916 127.78 310.708 129.473 309.976 130.892C309.243 132.311 308.046 133.341 306.648 133.754Z" fill="#003485"/>
<path d="M306.907 81.6727C308.124 84.8064 316.636 91.3996 316.636 91.3996C316.636 91.3996 318.083 79.7949 316.866 76.6612C316.26 75.195 315.174 74.0573 313.842 73.4912C312.509 72.9251 311.035 72.9754 309.735 73.6315C308.434 74.2875 307.411 75.4973 306.882 77.0022C306.354 78.5072 306.363 80.1879 306.907 81.6854V81.6727Z" fill="#FFF5E7"/>
<path d="M292.199 105.872C294.184 108.447 304.032 111.822 304.032 111.822C304.032 111.822 302.37 100.255 300.385 97.6799C299.916 97.0542 299.343 96.5409 298.699 96.1698C298.055 95.7987 297.352 95.5771 296.633 95.5181C295.913 95.459 295.19 95.5636 294.506 95.8258C293.822 96.088 293.19 96.5025 292.648 97.0452C292.105 97.588 291.663 98.2482 291.347 98.9875C291.03 99.7267 290.846 100.53 290.804 101.352C290.762 102.173 290.864 102.995 291.104 103.771C291.343 104.547 291.716 105.261 292.199 105.872Z" fill="#003485"/>
<path d="M280.738 131.635C282.311 134.554 291.517 139.776 291.517 139.776C291.517 139.776 291.595 128.058 290.032 125.135C289.255 123.786 288.047 122.835 286.664 122.484C285.282 122.133 283.834 122.409 282.627 123.255C281.421 124.1 280.55 125.448 280.201 127.013C279.852 128.577 280.051 130.235 280.756 131.635H280.738Z" fill="#003485"/>
<path d="M269.933 40.35C270.549 37.7744 271.291 35.1862 271.811 32.5768C271.187 35.1862 270.441 37.7829 269.933 40.35Z" fill="url(#paint0_linear_161_128)"/>
<path d="M186.1 127.275L183.874 128.396C183.874 128.396 169.362 192.653 169.362 197.846C169.362 203.04 200.133 231.937 200.133 231.937L204.934 195C204.934 195 198.04 110.295 186.1 127.275Z" fill="#E8F5FF"/>
<path d="M253.596 106.836L240.74 99.1896C240.019 95.6907 238.742 92.3721 236.97 89.3992C235.089 86.3035 232.588 83.2628 229.471 81.6769C221.594 77.6508 262.791 56.5179 262.791 56.5179C263.44 59.0565 264.204 61.5551 265.08 64.0034C267.202 69.9749 270.724 77.6973 275.261 79.8964C282.975 83.6392 253.596 106.836 253.596 106.836Z" fill="#A0616A"/>
<path opacity="0.1" d="M265.08 64.0034C263.32 71.0597 259.659 77.3074 254.615 81.8642C249.571 86.4211 243.399 89.0568 236.97 89.3992C235.089 86.3035 232.588 83.2628 229.471 81.6769C221.594 77.6508 262.791 56.5179 262.791 56.5179C263.44 59.0565 264.204 61.5551 265.08 64.0034Z" fill="black"/>
<path d="M266.238 53.3334C266.239 60.2538 264.44 67.0192 261.068 72.7741C257.695 78.529 252.902 83.0147 247.293 85.664C241.683 88.3133 235.511 89.0071 229.556 87.6577C223.601 86.3083 218.131 82.9764 213.837 78.0832C209.543 73.19 206.619 66.9555 205.435 60.1681C204.25 53.3806 204.858 46.3453 207.182 39.9517C209.506 33.5582 213.441 28.0937 218.489 24.2494C223.538 20.405 229.473 18.3535 235.545 18.3544C239.581 18.3331 243.58 19.2233 247.312 20.9736C251.044 22.7239 254.435 25.2995 257.288 28.5518C260.142 31.8041 262.402 35.6686 263.938 39.922C265.474 44.1755 266.256 48.7337 266.238 53.3334Z" fill="#A0616A"/>
<path d="M270.668 102.345L262.297 124.607L254.913 139.383H231.278L224.384 119.181L227.178 98.2296H245.229L256.884 97.4811L260.82 95.9839L263.358 97.6248L270.668 102.345Z" fill="#575A89"/>
<path opacity="0.1" d="M267.785 72.6689C267.785 72.6689 273.005 73.9376 268.33 78.3063C263.655 82.6749 247.526 96.5676 247.526 96.5676C247.526 96.5676 253.192 102.319 252.019 109.056L270.79 97.13L274.13 78.0483C274.13 78.0483 274.504 72.3136 267.785 72.6689Z" fill="black"/>
<path opacity="0.1" d="M251.218 96.5676L239.278 98.8132C239.278 98.8132 241.741 109.196 240.509 112.143C240.472 112.235 240.441 112.33 240.417 112.427L235.545 127.436L239.196 139.222L251.834 119.578L247.526 112.143C247.526 112.143 252.079 105.267 254.787 102.882C257.496 100.496 251.218 96.5676 251.218 96.5676Z" fill="black"/>
<path d="M251.218 95.9882L239.278 98.2296C239.278 98.2296 241.741 108.612 240.509 111.56C240.472 111.651 240.441 111.746 240.417 111.843L235.545 126.852L239.196 138.639L251.834 118.982L247.526 111.547C247.526 111.547 252.079 104.671 254.787 102.285C257.496 99.9001 251.218 95.9882 251.218 95.9882Z" fill="#DCE6F2"/>
<path d="M268.286 71.5481C268.286 71.5481 273.506 72.8169 268.827 77.1855C264.149 81.5542 247.526 96.5676 247.526 96.5676C247.526 96.5676 253.681 101.198 252.513 107.931L271.284 96.0093L274.623 76.9276C274.623 76.9276 274.994 71.1929 268.286 71.5481Z" fill="#575A89"/>
<path opacity="0.1" d="M237.79 90.7229C237.79 90.7229 238.929 93.1504 243.956 97.5275C243.956 97.5275 235.586 102.602 238.788 109.737L225.983 105.931L224.013 98.9147L237.79 90.7229Z" fill="black"/>
<path d="M237.296 90.1647C237.296 90.1647 238.435 92.5922 243.463 96.9693C243.463 96.9693 235.092 102.019 238.294 109.175L225.493 105.368L223.523 98.3565L237.296 90.1647Z" fill="#575A89"/>
<path opacity="0.1" d="M270.668 102.345L262.297 124.607L254.928 139.383H231.278L224.384 119.181L227.174 98.2296H232.194C232.113 103.118 233.679 108.862 233.578 110.997C233.408 114.507 238.172 133.445 238.172 133.445C238.172 133.445 248.142 115.066 252.079 113.429C254.553 112.401 259.796 103.85 263.355 97.6249L270.668 102.345Z" fill="black"/>
<path d="M303.642 219.495L302.793 220.713C302.793 220.713 308.948 255.929 307.245 263.926C306.956 265.368 306.79 266.838 306.752 268.316V268.38C306.451 276.516 308.607 287.076 308.607 287.076C308.607 287.076 310.329 318.203 309.349 331.004H194.096C193.421 312.075 192.693 287.55 193.354 284.831C194.467 280.344 196.693 264.066 196.693 264.066L196.938 256.352C196.938 256.352 196.938 248.896 197.138 240.59C197.224 236.856 197.35 232.935 197.532 229.459C197.765 225.086 198.092 221.403 198.541 219.593C198.818 218.221 198.977 216.821 199.016 215.414C199.016 215.283 199.016 215.148 199.038 215.012C199.038 214.589 199.075 214.133 199.09 213.663C199.09 213.532 199.09 213.401 199.09 213.24C199.161 210.517 199.135 207.286 199.057 203.936C199.057 203.754 199.057 203.568 199.057 203.382C198.994 200.87 198.901 198.307 198.797 195.871C198.474 188.259 198.055 181.822 198.055 181.822L183.9 128.366L187.714 117.658L198.3 110.266L217.872 96.796C227.419 87.8514 233.705 88.9256 236.102 89.9067C236.334 89.9973 236.562 90.1032 236.784 90.2239C236.858 90.2662 236.918 90.3 236.974 90.3381C237.05 90.3792 237.123 90.4273 237.192 90.4819C236.536 90.8418 235.966 91.3772 235.53 92.0424C235.039 92.7995 234.69 93.663 234.502 94.5799C234.377 95.1482 234.289 95.7264 234.239 96.3096C234.191 96.9228 234.172 97.5572 234.172 98.1958C234.199 99.5963 234.304 100.993 234.488 102.378C234.488 102.404 234.488 102.438 234.488 102.471C234.61 103.461 234.762 104.43 234.911 105.339C234.909 105.354 234.909 105.37 234.911 105.385C235.081 106.447 235.252 107.428 235.367 108.274C235.389 108.426 235.408 108.566 235.426 108.697C235.508 109.256 235.547 109.822 235.541 110.388C235.583 111.757 235.745 113.117 236.024 114.448C236.12 115.007 236.231 115.603 236.354 116.225C236.521 117.07 236.703 117.992 236.899 118.931C237.007 119.447 237.122 119.98 237.241 120.509C237.285 120.72 237.333 120.932 237.378 121.147L237.452 121.481C238.242 125.063 239.1 128.628 239.626 130.785C239.938 132.054 240.135 132.836 240.135 132.836C240.135 132.836 245.723 122.539 250.183 116.677C250.249 116.592 250.309 116.512 250.372 116.436C250.813 115.857 251.248 115.328 251.663 114.863C252.572 113.831 253.388 113.095 254.045 112.824C254.185 112.766 254.32 112.694 254.45 112.609C256.275 111.429 259.221 107.145 261.978 102.658C262.249 102.235 262.512 101.774 262.779 101.338C263.392 100.331 263.985 99.3207 264.546 98.3523C264.976 97.6122 265.388 96.8932 265.778 96.2081C267.633 92.9179 268.939 90.465 268.939 90.465L271.514 90.3339L271.963 90.3085H272.263L283.955 89.691C283.955 89.691 284.46 89.7883 285.291 89.9786C285.335 89.9786 285.38 89.9786 285.428 90.0125C289.576 90.9513 301.101 93.9244 301.806 98.0478C302.667 103.097 321.256 109.834 321.256 109.834C321.501 113.218 326.053 115.446 326.053 115.446C326.053 115.446 332.947 136.211 331.103 144.348C329.281 152.383 335.845 172.26 336.02 172.818L334.762 174.629L303.642 219.495Z" fill="#E8F5FF"/>
<path opacity="0.1" d="M267.781 71.1929C267.781 71.1929 279.161 67.5136 281.747 75.0879C284.333 82.6622 290.118 113.251 290.118 113.251C290.118 113.251 275.098 116.478 271.161 113.251C268.852 111.336 265.994 110.485 263.158 110.866L254.665 117.459L252.156 116.614C252.156 116.614 265.744 93.5903 268.698 85.7664C271.651 77.9426 272.649 74.4451 267.781 71.1929Z" fill="black"/>
<path d="M267.288 69.5012C267.288 69.5012 278.675 65.8219 281.272 73.3963C283.87 80.9706 289.643 111.56 289.643 111.56C289.643 111.56 274.627 114.787 270.686 111.56C268.379 109.645 265.522 108.793 262.687 109.175L254.186 115.768L251.678 114.922C251.678 114.922 265.266 91.8986 268.219 84.0748C271.173 76.2509 272.156 72.7619 267.288 69.5012Z" fill="#E8F5FF"/>
<path opacity="0.1" d="M190.901 191.532C190.901 191.532 199.394 193.918 200.997 199.39C202.6 204.863 194.719 205.002 194.719 205.002C194.719 205.002 189.918 195.322 190.901 191.532Z" fill="black"/>
<path opacity="0.1" d="M222.536 231.937C222.536 231.937 201.736 280.483 206.537 285.114C211.338 289.745 222.536 231.937 222.536 231.937Z" fill="black"/>
<path opacity="0.1" d="M251.218 196.163C251.218 196.163 267.837 243.318 264.512 250.6C261.188 257.883 271.651 250.6 271.651 250.6L251.218 196.163Z" fill="black"/>
<path d="M274.36 242.743C274.36 242.743 218.229 245.83 234.603 265.753C250.977 285.677 284.578 266.599 284.578 266.599L274.36 242.743Z" fill="#A0616A"/>
<path d="M172.186 196.721L169.355 197.846C169.355 197.846 170.468 216.928 166.757 222.401C163.047 227.873 178.943 241.478 178.943 241.478C178.943 241.478 200.73 241.339 201.346 239.364C201.962 237.389 200.233 204.008 200.233 204.008C200.233 204.008 188.538 198.815 189.521 190.538C189.521 190.538 185.951 210.039 180.66 209.197C175.369 208.356 169.362 203.319 172.186 196.721Z" fill="#E8F5FF"/>
<path opacity="0.1" d="M181.629 215.101C185.754 215.101 189.098 211.615 189.098 207.315C189.098 203.015 185.754 199.53 181.629 199.53C177.504 199.53 174.16 203.015 174.16 207.315C174.16 211.615 177.504 215.101 181.629 215.101Z" fill="black"/>
<path d="M189.796 197.284C189.796 197.284 188.311 145.655 175.392 157.158C162.472 168.661 162.346 182.419 164.806 186.483C167.266 190.547 175.154 210.893 175.154 210.893C176.388 211.708 177.774 212.179 179.198 212.266C180.622 212.352 182.044 212.054 183.347 211.393C184.651 210.733 185.798 209.731 186.696 208.467C187.593 207.204 188.216 205.717 188.512 204.127L189.796 197.284Z" fill="#A0616A"/>
<path opacity="0.1" d="M270.39 66.507C270.329 66.2802 270.214 66.0777 270.056 65.9234C269.417 65.2594 268.045 65.0268 265.974 65.2298L266.06 66.3463C268.82 66.0756 269.366 66.7016 269.436 66.8073V66.913L269.521 67.0526C269.866 67.5798 270.109 68.1832 270.237 68.8241C270.365 69.4649 270.374 70.1292 270.263 70.7742C269.659 74.2209 265.945 76.9656 265.907 76.9952L265.818 77.0544L265.763 77.1517C264.16 79.8626 255.095 87.513 252.724 89.4922L252.517 89.2216C251.455 90.2704 242.127 99.5787 241.623 103.144C241.296 105.381 239.085 106.248 238.283 106.489C237.437 105.757 234.692 103.266 233.263 100.475C231.924 97.849 237.315 92.7233 237.79 90.7229L237.048 89.8559C236.97 90.1774 230.046 97.5529 231.972 101.321C233.515 104.345 236.335 106.933 237.322 107.787C237.007 111.052 235.044 130.223 232.028 134.765C228.28 140.411 225.13 168.864 225.479 178.798C225.787 187.625 223.764 204.296 217.011 211.456C215.842 212.75 214.432 213.726 212.886 214.312C211.339 214.897 209.697 215.078 208.081 214.839H207.999H207.917C207.821 214.839 198.025 215.981 189.796 208.072C183.061 201.615 179.247 191.076 178.453 176.739H178.29L178.223 172.565C180.049 172.24 181.693 171.121 182.81 169.443C183.928 167.766 184.431 165.659 184.215 163.568C183.998 161.476 183.079 159.561 181.65 158.225C180.221 156.89 178.393 156.238 176.551 156.406C174.709 156.574 172.995 157.55 171.771 159.128C170.547 160.705 169.907 162.763 169.985 164.867C170.064 166.972 170.855 168.96 172.193 170.413C173.53 171.867 175.31 172.673 177.158 172.662H177.239L177.306 176.811L176.98 176.836C177.796 191.638 181.803 202.587 188.853 209.35C194.211 214.41 201.056 216.964 208.003 216.493C208.495 216.554 208.991 216.585 209.487 216.586C212.671 216.604 215.735 215.2 218.021 212.674C225.134 205.125 227.297 187.84 226.959 178.714C226.588 168.188 229.894 140.758 233.211 135.763C236.462 130.861 238.432 111.763 238.777 108.062C239.953 107.686 242.613 106.498 243.066 103.41C243.393 101.177 249.622 94.2965 253.455 90.4861L253.34 90.3338C255.403 88.6168 261.819 83.2035 264.998 79.7272C265.985 78.6488 266.965 77.5704 267.989 76.5427C269.221 75.2993 270.787 73.3243 271.198 70.9899C271.339 70.2193 271.34 69.4241 271.2 68.6532C271.061 67.8823 270.785 67.1519 270.39 66.507Z" fill="black"/>
<path d="M237.196 107.521C237.04 107.398 233.345 104.383 231.493 100.754C229.571 96.9863 236.495 89.6149 236.569 89.2935L237.311 90.1605C236.84 92.1566 231.449 97.2865 232.788 99.9086C234.476 103.22 238.031 106.117 238.068 106.147L237.196 107.521Z" fill="#353146"/>
<path d="M252.242 90.3127L251.663 89.4035C251.782 89.3062 263.436 79.6976 265.273 76.5892L265.332 76.4962L265.418 76.4328C265.455 76.4032 269.169 73.6627 269.774 70.2117C269.885 69.5674 269.877 68.9036 269.749 68.2632C269.621 67.6229 269.377 67.0202 269.032 66.4944L268.946 66.3506V66.2491C268.872 66.1391 268.327 65.5174 265.566 65.7881L265.481 64.6674C267.555 64.4644 268.924 64.697 269.562 65.361C269.721 65.5168 269.838 65.7205 269.9 65.9488C270.301 66.5918 270.582 67.3217 270.727 68.0934C270.871 68.8651 270.875 69.6623 270.738 70.4359C270.326 72.7746 268.764 74.7496 267.529 75.9887C266.508 77.0164 265.525 78.1033 264.542 79.1732C260.813 83.2459 252.65 89.9786 252.242 90.3127Z" fill="#E8F5FF"/>
<path d="M177.744 171.092L176.761 171.113L176.87 177.925L177.853 177.904L177.744 171.092Z" fill="#E8F5FF"/>
<path d="M176.679 172.125C180.644 172.125 183.859 168.461 183.859 163.942C183.859 159.422 180.644 155.758 176.679 155.758C172.714 155.758 169.5 159.422 169.5 163.942C169.5 168.461 172.714 172.125 176.679 172.125Z" fill="#003485"/>
<path d="M176.679 170.738C179.972 170.738 182.642 167.695 182.642 163.942C182.642 160.188 179.972 157.145 176.679 157.145C173.386 157.145 170.717 160.188 170.717 163.942C170.717 167.695 173.386 170.738 176.679 170.738Z" fill="#E8F5FF"/>
<path d="M209.019 216.04C208.523 216.041 208.028 216.011 207.535 215.951C200.589 216.417 193.746 213.865 188.386 208.808C181.336 202.042 177.336 191.105 176.512 176.291L177.996 176.185C178.79 190.522 182.605 201.065 189.343 207.518C197.573 215.406 207.364 214.285 207.461 214.285H207.542H207.624C209.241 214.522 210.883 214.342 212.43 213.756C213.977 213.17 215.388 212.195 216.559 210.902C223.308 203.742 225.33 187.071 225.022 178.244C224.651 168.302 227.801 139.848 231.553 134.207C234.836 129.263 236.873 106.98 236.896 106.755L236.951 106.121L237.5 106.011C237.534 106.011 240.74 105.318 241.14 102.586C241.66 99.0247 250.973 89.7164 252.03 88.6633L252.999 89.9321C249.151 93.7383 242.921 100.623 242.61 102.86C242.157 105.956 239.497 107.14 238.324 107.512C237.953 111.217 235.998 130.312 232.758 135.213C229.441 140.208 226.135 167.638 226.506 178.164C226.826 187.29 224.685 204.579 217.572 212.124C215.281 214.656 212.21 216.063 209.019 216.04Z" fill="#353146"/>
<path opacity="0.1" d="M330.25 167.68L334.558 172.873C334.558 172.873 338.005 201.492 339.726 204.169C341.448 206.846 345.515 217.495 341.697 225.492C341.697 225.492 340.465 229.844 341.203 231.667C341.941 233.489 335.667 242.612 335.667 242.612C335.667 242.612 327.419 251.027 325.693 252.292C323.968 253.556 314.863 263.656 311.787 263.795C308.711 263.935 307.705 268.286 307.705 268.286L290.348 268.989C290.348 268.989 280.76 268.418 278.675 269.961C278.675 269.961 279.788 253.265 269.076 242.32L282.738 236.708C282.738 236.708 287.91 234.17 289.509 231.519C290.515 229.893 291.943 228.667 293.591 228.013C293.591 228.013 297.405 224.925 297.528 223.242C297.65 221.559 302.192 219.495 302.192 219.495L299.62 194.48L300.975 152.95C300.975 152.95 305.282 118.153 314.392 120.12C323.501 122.086 330.25 167.68 330.25 167.68Z" fill="black"/>
<path d="M332.174 167.641L336.482 172.834C336.482 172.834 339.928 201.453 341.65 204.13C343.372 206.807 347.438 217.456 343.62 225.453C343.62 225.453 342.392 229.805 343.131 231.627C343.869 233.45 337.591 242.572 337.591 242.572C337.591 242.572 329.343 250.988 327.617 252.253C325.892 253.517 316.787 263.616 313.711 263.756C310.635 263.896 309.629 268.247 309.629 268.247L292.272 268.949C292.272 268.949 282.677 268.378 280.599 269.922C280.599 269.922 281.712 253.225 271 242.281L284.662 236.669C284.662 236.669 289.834 234.131 291.433 231.479C292.439 229.854 293.867 228.628 295.515 227.973C295.515 227.973 299.329 224.886 299.452 223.203C299.574 221.52 304.116 219.456 304.116 219.456L301.544 194.441L302.898 152.911C302.898 152.911 307.206 118.114 316.315 120.08C325.424 122.047 332.174 167.641 332.174 167.641Z" fill="#E8F5FF"/>
<path opacity="0.1" d="M315.72 209.633C315.72 209.633 328.398 205.827 331.723 210.479C335.047 215.131 315.72 209.633 315.72 209.633Z" fill="black"/>
<path opacity="0.1" d="M312.766 216.015C317.074 219.453 330.369 219.592 330.369 219.592L312.766 216.015Z" fill="black"/>
<path opacity="0.1" d="M319.289 233.202C319.66 233.341 328.428 244.007 332.109 240.78C335.789 237.554 319.289 233.202 319.289 233.202Z" fill="black"/>
<path opacity="0.1" d="M201.209 143.688C201.209 143.688 203.784 163.895 202.515 172.125C201.246 180.355 205.876 190.551 205.876 190.551L201.209 143.688Z" fill="black"/>
<path d="M144.202 151.906C141.233 154.557 139.067 160.833 137.497 167.731C134.759 179.763 133.865 193.715 133.865 193.715C133.865 193.715 110.229 187.54 111.951 184.736C113.034 182.973 111.58 169.685 110.366 160.051C109.643 154.358 108.997 149.939 108.997 149.939C108.997 149.939 152.328 144.606 144.202 151.906Z" fill="#FFCCD0"/>
<path opacity="0.1" d="M144.202 151.343C141.233 153.999 139.067 160.271 137.497 167.168C132.788 168.798 127.78 168.945 123.003 167.594C118.227 166.242 113.86 163.443 110.366 159.493C109.643 153.796 108.997 149.377 108.997 149.377C108.997 149.377 152.328 144.048 144.202 151.343Z" fill="black"/>
<path d="M156.906 136.228C156.909 143.584 154.628 150.704 150.468 156.327C146.308 161.95 140.536 165.715 134.175 166.955C127.813 168.194 121.272 166.829 115.709 163.1C110.147 159.371 105.92 153.519 103.779 146.58C101.637 139.641 101.718 132.063 104.008 125.185C106.297 118.308 110.648 112.576 116.289 109.003C121.93 105.43 128.498 104.247 134.831 105.663C141.164 107.079 146.853 111.003 150.892 116.74C154.783 122.267 156.905 129.141 156.906 136.228Z" fill="#FFCCD0"/>
<path opacity="0.1" d="M178.456 331.004H170.664L170.008 315.318L169.321 299.083C169.321 299.083 171.091 298.783 173.911 298.334L175.05 298.161H175.143C175.759 301.455 176.367 304.839 176.954 308.218C177.929 314.217 178.437 320.302 178.471 326.403C178.471 326.826 178.471 327.249 178.471 327.646C178.493 328.775 178.471 329.905 178.456 331.004Z" fill="black"/>
<path d="M176.961 331.004H79.2434C79.6664 329.909 79.9484 329.245 79.9484 329.245C79.9484 329.245 87.7662 290.261 91.7401 273.767C91.7413 273.753 91.7413 273.739 91.7401 273.725C92.2366 271.485 92.836 269.275 93.5359 267.107C93.5812 266.959 93.6396 266.817 93.7103 266.684C95.6769 263.038 98.1406 259.109 94.6936 253.497C91.2466 247.885 92.4673 223.191 92.4673 223.191C92.4673 223.191 96.6527 202.143 101.083 190.919C101.755 189.18 102.709 187.602 103.895 186.267C104.281 185.837 104.693 185.439 105.127 185.074C105.458 184.791 105.802 184.53 106.159 184.292L106.229 184.241C108.09 183.039 110.157 182.307 112.288 182.097C113.802 181.917 115.331 181.965 116.834 182.241C124.017 183.442 129.768 185.451 134.339 187.739C146.729 193.943 150.48 202.257 150.554 202.431L150.584 202.503C151.081 203.826 158.353 223.179 160.973 232.208C161.652 234.559 162.023 236.213 161.874 236.665C161.132 238.907 167.537 266.967 167.537 266.967C167.537 266.967 170.505 280.5 173.473 296.364C173.603 297.023 173.726 297.683 173.844 298.351C174.375 301.231 174.902 304.166 175.41 307.097C176.395 313.137 176.903 319.266 176.928 325.409C176.982 327.323 176.993 329.189 176.961 331.004Z" fill="#003485"/>
<path opacity="0.1" d="M111.706 172.446C111.706 172.446 104.964 169.486 105.046 173.977C105.127 178.469 106.689 180.617 106.196 181.272C105.702 181.928 106.441 185.857 106.441 185.857C106.441 185.857 115.55 185.857 119.735 188.005C123.921 190.154 139.349 194.459 141.319 195.77C143.289 197.081 150.595 202.959 150.595 202.959L151.252 191.828C151.252 191.828 143.701 184.719 131.312 181.074C118.923 177.428 111.706 172.446 111.706 172.446Z" fill="black"/>
<path d="M111.706 171.884C111.706 171.884 104.964 168.924 105.046 173.415C105.127 177.906 106.689 180.055 106.196 180.71C105.702 181.366 106.441 185.294 106.441 185.294C106.441 185.294 115.55 185.294 119.735 187.447C123.921 189.6 139.349 193.901 141.319 195.207C143.289 196.514 150.595 202.397 150.595 202.397L151.259 191.3C151.259 191.3 143.708 184.191 131.319 180.545C118.93 176.9 111.706 171.884 111.706 171.884Z" fill="#FF748E"/>
<path opacity="0.1" d="M132.058 198.671C132.058 198.671 144.94 214.568 144.283 218.971C143.627 223.373 132.058 198.671 132.058 198.671Z" fill="black"/>
<path opacity="0.1" d="M111.131 256.098C111.131 256.098 101.688 266.015 98.905 266.578C96.1221 267.14 101.038 269.01 104.237 267.517C107.435 266.024 114.255 262.095 114.255 262.095L111.131 256.098Z" fill="black"/>
<path d="M180.798 331.004H158.776C155.697 327.959 152.784 325.138 150.929 323.443C147.96 320.727 145.819 316.731 144.454 313.517C144.146 312.785 143.879 312.1 143.653 311.478C143.247 310.407 142.891 309.314 142.584 308.201L158.891 297.163C159.793 298.036 160.639 298.98 161.426 299.988L161.622 300.246C162.527 301.464 163.325 302.847 163.396 303.98C163.477 305.3 166.698 310.404 169.989 315.306C173.329 320.292 176.75 325.058 176.976 325.379C176.976 325.379 177.54 326.255 178.46 327.6C179.109 328.572 179.911 329.74 180.798 331.004Z" fill="#FFCCD0"/>
<path opacity="0.1" d="M150.892 116.74C150.109 118.753 149.408 120.843 149.304 123.084C149.011 129.555 149.485 144.022 143.2 147.27C140.087 148.869 136.755 145.359 133.341 145.274C130.885 145.215 128.633 146.991 127.134 149.212C125.635 151.432 124.704 154.067 123.616 156.579C122.627 158.859 121.487 161.05 120.207 163.134C119.824 163.771 119.402 164.378 118.945 164.948C115.112 163.105 111.699 160.289 108.966 156.714C106.233 153.14 104.252 148.901 103.174 144.322C102.095 139.743 101.948 134.943 102.744 130.289C103.54 125.636 105.257 121.25 107.764 117.467C110.272 113.684 113.504 110.604 117.215 108.46C120.926 106.317 125.016 105.167 129.176 105.099C133.335 105.03 137.454 106.045 141.217 108.065C144.98 110.086 148.289 113.058 150.892 116.757V116.74Z" fill="black"/>
<path d="M148.81 121.942C148.513 128.413 148.992 142.881 142.703 146.124C139.59 147.723 136.258 144.217 132.844 144.132C130.388 144.069 128.139 145.849 126.637 148.066C125.134 150.282 124.21 152.921 123.119 155.437C122.129 157.717 120.989 159.908 119.709 161.992C118.945 163.227 118.099 164.466 116.923 165.16C114.875 166.378 112.392 165.692 110.196 164.91C107.346 163.887 104.539 162.733 101.773 161.451C101.837 160.975 101.869 160.494 101.87 160.013C101.788 160.19 101.699 160.355 101.61 160.533L101.436 160.88C101.12 161.514 100.812 162.148 100.53 162.8C100.423 163.049 100.319 163.307 100.226 163.565C99.8528 164.525 99.6185 165.548 99.5321 166.593C99.3429 169.414 100.564 172.091 101.647 174.629C105.814 184.444 108.389 195.922 105.254 206.22C103.896 210.699 101.543 214.678 99.8252 219.005C96.8222 226.667 95.9382 235.191 97.291 243.44C98.1481 248.566 99.8661 253.641 99.4431 258.839C98.701 267.783 91.9332 274.44 85.1542 279.016C81.4921 281.477 77.0099 283.668 73.1213 281.722C75.5999 278.424 76.2381 273.86 76.7724 269.555C78.2343 257.812 79.6999 246.064 81.1692 234.31C81.7555 229.632 82.3405 224.955 82.9243 220.278C84.0151 211.49 85.1208 202.604 84.4381 193.761C83.9409 187.244 82.5384 180.325 85.017 174.426C86.3267 171.3 88.6606 168.712 89.3878 165.346C89.9852 162.609 89.4286 159.7 89.8219 156.913C90.0372 155.645 90.4017 154.416 90.9054 153.259C91.5468 151.689 92.3842 150.233 93.3914 148.937C92.397 148.607 91.4694 148.154 90.9054 147.207C92.5009 146.023 92.742 143.354 92.0185 141.35C91.295 139.345 89.8479 137.818 88.5456 136.237C87.2432 134.655 85.9891 132.811 85.8258 130.654C85.5104 126.548 89.1095 123.367 89.744 119.316C90.3859 115.193 87.848 111.183 88.0521 107.009C88.2895 101.964 92.3562 98.2973 96.3708 96.1701C102.429 92.9735 109.122 91.6603 115.769 92.3639C121.179 92.9475 126.414 94.8548 131.809 95.5949C135.063 96.0178 138.362 96.0601 141.593 96.7114C144.825 97.3627 148.064 98.7371 150.339 101.44C156.335 108.566 149.152 114.431 148.81 121.942Z" fill="#FFE0D0"/>
<path opacity="0.1" d="M143.794 313.521C141.901 312.586 138.458 313.145 132.547 311.094C126.637 309.042 125.498 299.772 125.498 299.772V299.743C125.427 299.531 124.878 298.152 121.16 293.323C117.053 287.99 108.174 261.055 108.174 261.055C108.174 261.055 100.3 251.417 100.549 247.864C100.797 244.312 99.1499 234.86 99.3132 224.287C99.4764 213.714 117.038 206.702 117.038 206.702C150.851 199.872 142.888 244.303 141.987 247.67C141.085 251.036 145.764 260.129 145.764 260.129C145.103 264.087 148.473 270.215 148.473 270.215C148.473 270.215 149.289 275.637 149.456 277.696C149.465 277.791 149.484 277.885 149.511 277.975C150.053 279.917 154.469 281.676 156.264 282.746C158.153 283.871 164.227 293.691 164.227 293.691C165.537 300.901 145.679 314.468 143.794 313.521Z" fill="black"/>
<path d="M144.777 311.829C142.888 310.891 139.441 311.453 133.534 309.398C127.627 307.342 126.484 298.081 126.484 298.081V298.051C126.418 297.835 125.865 296.461 122.147 291.631C118.04 286.298 109.161 259.359 109.161 259.359C109.161 259.359 101.287 249.725 101.532 246.172C101.777 242.62 100.137 233.168 100.3 222.604C100.463 212.039 118.014 205.032 118.014 205.032C151.827 198.202 143.864 242.633 142.962 245.999C142.061 249.365 146.74 258.458 146.74 258.458C146.079 262.416 149.448 268.544 149.448 268.544C149.448 268.544 150.265 273.966 150.435 276.026C150.441 276.121 150.459 276.215 150.487 276.305C151.029 278.246 155.444 280.005 157.244 281.075C159.129 282.196 165.206 292.02 165.206 292.02C166.524 299.218 146.665 312.785 144.777 311.829Z" fill="#003485"/>
<path opacity="0.1" d="M118.682 228.228C118.682 228.228 133.453 245.991 137.308 245.991C141.163 245.991 118.682 228.228 118.682 228.228Z" fill="black"/>
<path d="M144.777 311.829C142.888 310.891 139.441 311.453 133.534 309.398C127.627 307.342 126.485 298.081 126.485 298.081V298.051C130.399 295.091 140.313 286.73 144.22 283.672C146.97 281.528 149.215 278.377 150.528 276.288C151.07 278.229 155.485 279.988 157.285 281.058C159.17 282.179 165.247 292.003 165.247 292.003C166.524 299.218 146.666 312.785 144.777 311.829Z" fill="#003485"/>
<g opacity="0.1">
<path d="M90.9277 147.253C90.9463 147.287 90.9723 147.317 90.9945 147.351C91.1058 147.19 91.2209 147.029 91.3396 146.877C91.2131 147.017 91.0752 147.143 90.9277 147.253Z" fill="black"/>
<path d="M99.5358 166.64C99.6917 164.293 100.794 162.224 101.825 160.161C101.15 159.865 100.475 159.564 99.8067 159.251C99.8703 158.777 99.9025 158.298 99.9032 157.818C98.8605 159.932 97.7251 162.013 97.5656 164.394C97.3764 167.219 98.5971 169.892 99.6805 172.429C103.851 182.241 106.422 193.719 103.287 204.021C101.925 208.495 99.5766 212.479 97.8587 216.805C94.8567 224.467 93.974 232.989 95.3282 241.237C96.1779 246.367 97.8995 251.438 97.4765 256.635C96.7345 265.58 89.9704 272.236 83.1877 276.808C80.416 278.677 77.1768 280.39 74.0786 280.267C73.7918 280.794 73.4719 281.295 73.1213 281.769C77.0136 283.727 81.4921 281.524 85.1542 279.054C91.9406 274.486 98.7195 267.847 99.4616 258.885C99.8846 253.688 98.163 248.617 97.3096 243.487C95.955 235.24 96.835 226.718 99.8327 219.055C101.539 214.733 103.914 210.745 105.261 206.271C108.396 195.969 105.821 184.491 101.654 174.679C100.575 172.125 99.3466 169.465 99.5358 166.64Z" fill="black"/>
<path d="M150.331 101.49C149.967 101.063 149.575 100.668 149.159 100.306C153.656 106.954 147.163 112.604 146.84 119.76C146.551 126.231 147.025 140.703 140.736 143.942C137.627 145.545 134.291 142.035 130.881 141.95C128.421 141.891 126.173 143.671 124.67 145.887C123.167 148.104 122.244 150.742 121.156 153.255C120.165 155.534 119.024 157.726 117.743 159.81C117.001 161.049 116.133 162.284 114.953 162.982C112.912 164.195 110.43 163.514 108.229 162.728C106.09 161.961 103.97 161.115 101.87 160.19C101.865 160.631 101.833 161.07 101.773 161.506C104.541 162.791 107.35 163.944 110.2 164.965C112.396 165.752 114.878 166.432 116.923 165.219C118.099 164.521 118.952 163.282 119.713 162.043C120.995 159.961 122.135 157.771 123.123 155.492C124.214 152.98 125.134 150.336 126.64 148.12C128.147 145.904 130.392 144.128 132.848 144.187C136.262 144.272 139.597 147.782 142.707 146.179C148.996 142.94 148.517 128.468 148.81 121.997C149.152 114.474 156.335 108.612 150.331 101.49Z" fill="black"/>
</g>
<path opacity="0.1" d="M101.439 160.884C101.124 161.518 100.816 162.153 100.534 162.804C100.426 163.053 100.322 163.311 100.23 163.569C98.2853 161.336 93.5508 156.029 90.9089 154.384C91.5513 152.815 92.3885 151.359 93.3949 150.062C93.3949 150.062 99.6915 153.855 101.439 160.884Z" fill="black"/>
<path d="M101.613 160.537C100.155 153.014 93.3949 148.941 93.3949 148.941C92.3877 150.237 91.5504 151.693 90.9089 153.263C93.6955 155.001 98.8307 160.829 100.534 162.804L101.613 160.537Z" fill="#FF748E"/>
<path d="M225.5 45.5L210 53.5L207 54.5L202 58.5L203.5 53.5V52V45.5L200.5 50.5L199.5 46.5V42L202 36.5L205.5 32.5L210 28L211 23L221 17L227 13L238 11.5L245 13L250 17L258.5 20L264.5 28L267 38L265.5 43.5V50.5V54.5L261.5 58.5L258.5 56L248.5 53.5H242L235 47.5L225.5 45.5Z" fill="black" stroke="black"/>
</g>
<defs>
<linearGradient id="paint0_linear_161_128" x1="270.872" y1="40.35" x2="270.872" y2="32.5768" gradientUnits="userSpaceOnUse">
<stop stop-color="#808080" stop-opacity="0.25"/>
<stop offset="0.54" stop-color="#808080" stop-opacity="0.12"/>
<stop offset="1" stop-color="#808080" stop-opacity="0.1"/>
</linearGradient>
<clipPath id="clip0_161_128">
<rect width="403" height="331" fill="white"/>
</clipPath>
</defs>
</svg>
