<svg width="550" height="383" viewBox="0 0 550 383" fill="none" xmlns="http://www.w3.org/2000/svg">
<g clip-path="url(#clip0_175_363)">
<path d="M459.545 58.8668L417.117 59.2801C415.123 49.4623 408.422 23.7018 414.457 16.6754C414.732 14.0309 416.016 11.5943 418.043 9.87287C420.069 8.15148 422.681 7.27793 425.335 7.43406C431.911 -2.85975 442.865 -1.3142 450.268 5.11474C457.719 7.68558 460.528 12.2528 459.545 18.4508C465.063 23.2807 466.081 29.1569 463.604 35.8457L459.545 58.8668Z" fill="#2F2E41"/>
<path d="M455.461 85.0036L424.85 80.7652L418.728 71.8175C427.161 66.2234 430.146 58.41 426.263 47.7998L447.455 47.3289C446.462 56.7774 449.587 64.0932 458.287 68.5209L455.461 85.0036Z" fill="#FFB9B9"/>
<path d="M417.613 361.104L416.442 377.106C416.389 377.83 416.492 378.557 416.743 379.239C416.994 379.92 417.388 380.54 417.898 381.057C418.409 381.574 419.023 381.975 419.702 382.235C420.38 382.494 421.106 382.606 421.831 382.562L430.05 382.064C430.431 382.041 430.802 381.934 431.137 381.752C431.471 381.569 431.762 381.315 431.988 381.007C432.213 380.699 432.368 380.346 432.442 379.971C432.515 379.597 432.505 379.211 432.413 378.841L427.851 360.592L417.613 361.104Z" fill="#E6E6E6"/>
<path d="M444.221 360.592L439.659 378.841C439.567 379.211 439.557 379.597 439.63 379.971C439.704 380.346 439.859 380.699 440.084 381.007C440.31 381.315 440.6 381.569 440.935 381.752C441.27 381.934 441.641 382.041 442.022 382.064L450.241 382.562C450.966 382.606 451.692 382.494 452.37 382.235C453.048 381.975 453.663 381.574 454.174 381.057C454.684 380.54 455.078 379.92 455.329 379.239C455.58 378.557 455.683 377.83 455.63 377.106L454.459 361.104L444.221 360.592Z" fill="#E6E6E6"/>
<path d="M454.99 363.326L443.898 362.213L432.856 244.18L428.683 361.832L417.786 361.442L399.419 198.499H469.588L454.99 363.326Z" fill="#003485"/>
<path d="M438.036 55.3348C449.74 55.3348 459.228 45.8468 459.228 34.1427C459.228 22.4387 449.74 12.9507 438.036 12.9507C426.332 12.9507 416.844 22.4387 416.844 34.1427C416.844 45.8468 426.332 55.3348 438.036 55.3348Z" fill="#FFB9B9"/>
<path d="M479.949 202.266L394.239 203.208C406.959 154.785 414.568 109.805 401.303 78.8815L422.495 68.521C432.714 79.179 444.094 78.0802 456.403 67.5791L476.653 72.7594C473.184 113.31 474.739 156.74 479.949 202.266Z" fill="#003485"/>
<path d="M370.692 152.347L423.908 173.539L435.806 177.039C436.338 177.195 436.896 177.242 437.447 177.178C437.998 177.113 438.53 176.938 439.012 176.662C439.493 176.387 439.914 176.016 440.249 175.574C440.583 175.132 440.825 174.626 440.96 174.088C441.196 173.145 441.09 172.148 440.661 171.275C440.232 170.402 439.508 169.709 438.617 169.319L426.263 165.533L389.059 143.87L396.829 123.385L380.582 114.673L370.692 152.347Z" fill="#FFB9B9"/>
<path d="M371.164 113.731C381.288 117.681 389.341 124.422 395.652 133.51L415.431 104.783L401.303 78.8815L371.164 113.731Z" fill="#003485"/>
<path d="M461.921 30.7082C453.32 28.492 444.863 28.1877 436.643 30.9987C431.406 33.5349 425.118 33.3012 418.124 31.2116V10.0683L455.88 11.0751L461.921 30.7082Z" fill="#2F2E41"/>
<path d="M423.732 127.656C422.068 127.658 420.472 128.319 419.295 129.496C418.119 130.673 417.457 132.268 417.455 133.932L419.933 185.794C419.934 187.458 420.596 189.053 421.773 190.23C422.95 191.406 424.545 192.068 426.209 192.07H454.534C456.198 192.068 457.794 191.406 458.971 190.23C460.147 189.053 460.809 187.458 460.811 185.794L463.288 133.932C463.287 132.268 462.625 130.673 461.448 129.496C460.271 128.319 458.676 127.658 457.012 127.656H423.732Z" fill="#3F3D56"/>
<path d="M504.098 148.429L457.714 166.899L454.214 168.293C454.103 168.336 453.991 168.373 453.874 168.41L442.149 171.86C440.65 172.3 438.575 170.281 437.361 168.887C436.76 168.216 436.42 167.351 436.402 166.45C436.383 165.549 436.689 164.671 437.262 163.976C437.424 163.789 437.603 163.617 437.795 163.462C438.247 163.11 438.779 162.876 439.343 162.78L451.056 160.476C451.476 160.394 451.88 160.243 452.251 160.03L457.714 156.847L486.075 140.334C486.864 139.876 487.464 139.152 487.769 138.292C488.074 137.433 488.064 136.493 487.741 135.639L482.328 121.363C481.996 120.489 481.993 119.525 482.32 118.65C482.647 117.774 483.282 117.048 484.105 116.606L493.074 111.8C493.586 111.525 494.154 111.37 494.736 111.346C495.317 111.322 495.896 111.431 496.429 111.663C496.962 111.896 497.435 112.246 497.813 112.689C498.191 113.131 498.464 113.653 498.611 114.215L506.396 143.871C506.636 144.78 506.534 145.746 506.111 146.585C505.688 147.425 504.972 148.081 504.098 148.429Z" fill="#FFB9B9"/>
<path d="M506.793 108.55C496.668 112.5 488.615 119.242 482.304 128.33L462.525 99.6026L476.653 72.7594L506.793 108.55Z" fill="#003485"/>
<path d="M452.14 53.0048C442.869 56.8611 433.148 56.7045 423.029 53.0048C425.973 47.9792 421.572 44.0432 419.313 38.97L457.095 37.8472C454.205 42.2544 449.942 47.4614 452.14 53.0048Z" fill="white"/>
<path d="M456.694 38.6858L456.256 38.2479L456.875 37.6285L460.575 33.3103L461.046 33.7129L457.33 38.0485L456.694 38.6858Z" fill="white"/>
<path d="M416.724 36.0609L416.328 36.5369L420.044 39.6338L420.441 39.1577L416.724 36.0609Z" fill="white"/>
<path d="M457.762 42.3271L451.257 52.5457L451.779 52.8784L458.284 42.6598L457.762 42.3271Z" fill="white"/>
<path d="M417.406 42.3263L416.884 42.6589L423.387 52.8785L423.91 52.5459L417.406 42.3263Z" fill="white"/>
<path d="M458.952 155.971V167.191L455.046 168.747C454.922 168.795 454.797 168.837 454.666 168.878L441.578 172.729C439.905 173.22 437.589 170.966 436.234 169.411C435.563 168.661 435.183 167.696 435.163 166.69C435.143 165.684 435.483 164.704 436.124 163.928C436.304 163.72 436.503 163.528 436.718 163.354C437.223 162.962 437.816 162.7 438.447 162.594L451.52 160.022C451.989 159.93 452.44 159.762 452.855 159.524L458.952 155.971Z" fill="white"/>
<path d="M464.614 115.947H462.376C462.376 84.2908 455.858 62.23 449.506 62.23L448.946 59.9918C454.643 59.9918 458.274 69.1733 460.318 76.8759C463.088 87.3181 464.614 101.194 464.614 115.947Z" fill="#3F3D56"/>
<path d="M413.135 108.113H410.896C410.896 79.1213 417.46 61.1109 427.124 61.1109L426.564 63.3491C419.879 63.3491 413.135 77.1907 413.135 108.113Z" fill="#3F3D56"/>
<path d="M463.494 122.102C466.585 122.102 469.09 119.597 469.09 116.507C469.09 113.416 466.585 110.911 463.494 110.911C460.404 110.911 457.899 113.416 457.899 116.507C457.899 119.597 460.404 122.102 463.494 122.102Z" fill="#3F3D56"/>
<path d="M404.182 121.543H401.943C401.943 113.521 406.462 106.994 412.015 106.994V109.232C407.696 109.232 404.182 114.755 404.182 121.543Z" fill="#3F3D56"/>
<path d="M422.088 121.543H419.849C419.849 114.755 416.335 109.232 412.016 109.232V106.994C417.569 106.994 422.088 113.521 422.088 121.543Z" fill="#3F3D56"/>
<path d="M420.968 124.34C422.204 124.34 423.206 123.338 423.206 122.102C423.206 120.866 422.204 119.864 420.968 119.864C419.732 119.864 418.73 120.866 418.73 122.102C418.73 123.338 419.732 124.34 420.968 124.34Z" fill="#3F3D56"/>
<path d="M403.062 124.34C404.299 124.34 405.301 123.338 405.301 122.102C405.301 120.866 404.299 119.864 403.062 119.864C401.826 119.864 400.824 120.866 400.824 122.102C400.824 123.338 401.826 124.34 403.062 124.34Z" fill="#3F3D56"/>
<path d="M133.332 46.8847L94.0232 53.5414C93.0521 53.7071 92.0541 53.5067 91.2223 52.9789C90.3905 52.4511 89.7841 51.6336 89.5203 50.6845C86.6803 40.4342 80.7426 27.0624 86.5075 20.3498C86.8012 17.5259 88.1727 14.924 90.3366 13.0858C92.5004 11.2477 95.2898 10.3148 98.1241 10.4815C105.146 -0.510611 116.843 1.13979 124.748 8.00488C132.704 10.7501 135.704 15.6273 134.655 22.2457C138.092 25.2543 139.894 28.643 140.274 32.3624C140.454 34.4322 140.191 36.5167 139.501 38.4766C138.812 40.4366 137.713 42.227 136.277 43.7283L133.332 46.8847Z" fill="#2F2E41"/>
<path d="M127.22 77.8315L96.7471 76.039C99.7335 69.1845 100.926 62.5839 99.7346 56.321H122.44C122.389 61.1297 124.782 69.4478 127.22 77.8315Z" fill="#9F616A"/>
<path d="M90.5393 359.413L89.2894 376.5C89.2328 377.274 89.3423 378.05 89.6104 378.778C89.8786 379.505 90.2992 380.167 90.8441 380.719C91.389 381.271 92.0456 381.7 92.7699 381.977C93.4942 382.254 94.2693 382.373 95.0434 382.327L103.82 381.795C104.227 381.77 104.623 381.656 104.981 381.461C105.338 381.266 105.648 380.995 105.889 380.666C106.13 380.337 106.296 379.96 106.374 379.56C106.453 379.16 106.442 378.748 106.343 378.353L101.472 358.866L90.5393 359.413Z" fill="#E6E6E6"/>
<path d="M118.953 358.866L114.081 378.353C113.982 378.748 113.972 379.16 114.05 379.56C114.128 379.96 114.294 380.337 114.535 380.666C114.776 380.994 115.086 381.266 115.444 381.461C115.801 381.656 116.198 381.77 116.604 381.795L125.381 382.327C126.155 382.373 126.93 382.254 127.654 381.977C128.379 381.7 129.035 381.271 129.58 380.719C130.125 380.167 130.546 379.505 130.814 378.778C131.082 378.05 131.191 377.274 131.135 376.5L129.885 359.413L118.953 358.866Z" fill="#E6E6E6"/>
<path d="M130.452 361.785L118.608 360.597L106.817 234.556L102.36 360.191L90.7241 359.774L71.1118 185.776H146.041L130.452 361.785Z" fill="#003485"/>
<path d="M111.686 63.5745C124.184 63.5745 134.316 53.4428 134.316 40.9447C134.316 28.4467 124.184 18.315 111.686 18.315C99.1883 18.315 89.0566 28.4467 89.0566 40.9447C89.0566 53.4428 99.1883 63.5745 111.686 63.5745Z" fill="#9F616A"/>
<path d="M137.191 30.1342C128.007 28.5346 118.977 28.315 110.198 30.3439C104.607 32.1745 97.8914 32.0058 90.4233 30.4975V15.237L130.741 15.9637L137.191 30.1342Z" fill="#2F2E41"/>
<path d="M126.747 59.1022C116.847 63.2201 106.467 63.0529 95.6617 59.1022C98.8057 53.7357 94.106 49.5327 91.6934 44.1153L132.038 42.9164C128.953 47.6225 124.4 53.1828 126.747 59.1022Z" fill="white"/>
<path d="M88.9153 41.0249L88.5186 41.501L92.4867 44.8077L92.8834 44.3316L88.9153 41.0249Z" fill="white"/>
<path d="M132.769 47.7109L125.823 58.6229L126.345 58.9555L133.292 48.0435L132.769 47.7109Z" fill="white"/>
<path d="M89.6388 47.7104L89.1162 48.043L96.0608 58.956L96.5834 58.6234L89.6388 47.7104Z" fill="white"/>
<path d="M68.6639 144.156L51.3359 133.4L66.1136 90.1195C67.7618 85.6535 70.9187 81.9037 75.0385 79.5185L80.0166 76.6365L80.4495 120.299L68.6639 144.156Z" fill="#003485"/>
<path d="M143.563 165.176L140.999 143.218C140.863 131.628 142.834 120.422 147.536 110.097L149.926 77.8315L123.635 67.0762C123.555 67.612 123.486 68.1474 123.409 68.6831L111.088 74.8439L99.0708 72.1129L99.1373 68.2713L75.2368 79.0266C83.1407 115.773 78.8297 153.932 65.2378 199.004L96.7246 207.614L96.9864 192.495L125.048 190.49C125.337 195.395 125.569 200.214 125.704 204.925C141.538 210.754 142.082 210.658 156.509 202.311C150.764 190.231 146.215 177.661 143.563 165.176Z" fill="#003485"/>
<path d="M183.985 138.778L167.852 133.4L142.046 103.359L149.926 77.8318L185.777 128.023L183.985 138.778Z" fill="#003485"/>
<path d="M133.424 162.035C133.688 163.194 134.401 164.2 135.405 164.834C136.41 165.468 137.626 165.677 138.785 165.416L152.479 162.315L150.5 153.574L136.805 156.675C135.646 156.937 134.639 157.649 134.005 158.655C133.371 159.66 133.162 160.876 133.424 162.035Z" fill="#E6E6E6"/>
<path d="M145.744 151.923L153.511 166.264C166.576 162.62 177.899 151.132 188.765 137.583L185.777 128.023L167.254 132.803L145.744 151.923Z" fill="#003485"/>
<path d="M44.4644 106.941L59.3763 109.604L93.4608 158.067L75.3535 153.807L44.4644 106.941Z" fill="#E6E6E6"/>
<path d="M41.8196 106.348C41.5923 106.351 41.3702 106.415 41.1764 106.534C40.9825 106.653 40.8242 106.821 40.7178 107.022C40.6114 107.223 40.561 107.449 40.5717 107.676C40.5825 107.903 40.654 108.123 40.7789 108.313L72.6388 156.652C72.8166 156.922 73.0912 157.114 73.4061 157.188L88.2296 160.676C88.4796 160.735 88.7415 160.716 88.9806 160.623C89.2198 160.529 89.4249 160.365 89.5687 160.152C89.7125 159.94 89.7882 159.688 89.7858 159.432C89.7835 159.175 89.7031 158.925 89.5554 158.715L54.5751 108.977C54.4802 108.842 54.3596 108.726 54.2201 108.637C54.0805 108.549 53.9249 108.488 53.762 108.459L42.0585 106.369C41.9796 106.355 41.8997 106.348 41.8196 106.348Z" fill="#3F3D56"/>
<path d="M61.6938 140.91L62.5793 149.829L76.5521 148.442C77.7348 148.324 78.8224 147.742 79.5758 146.823C80.3291 145.903 80.6863 144.722 80.569 143.54C80.4516 142.357 79.8692 141.269 78.9498 140.516C78.0305 139.763 76.8496 139.405 75.6669 139.523L61.6938 140.91Z" fill="#E6E6E6"/>
<path d="M49.5439 139.877C49.5642 142.918 50.7857 145.828 52.9421 147.972C55.0985 150.117 58.0151 151.322 61.0563 151.326H63.3539L65.0265 137.387L51.1772 132.401L49.5439 139.877Z" fill="#003485"/>
<path d="M130.934 44.4583L130.496 44.0205L131.158 43.359L135.11 38.7465L135.58 39.1491L131.612 43.7789L130.934 44.4583Z" fill="white"/>
<path d="M550 381.597H0V382.836H550V381.597Z" fill="#3F3D56"/>
<path d="M209.966 380.978H340.034V223.214C340.034 214.86 331.805 208.064 321.692 208.064H228.308C218.194 208.064 209.966 214.86 209.966 223.214V380.978Z" fill="black"/>
<path d="M219.876 374.454H330.124V240.731C330.124 233.65 323.149 227.889 314.577 227.889H235.423C226.85 227.889 219.876 233.65 219.876 240.731V374.454Z" fill="#FFF5E7"/>
<path d="M208.984 195.786C205.769 195.786 203.153 197.947 203.153 200.602V214.503C203.153 217.159 205.769 219.319 208.984 219.319H341.017C344.232 219.319 346.847 217.159 346.847 214.503V200.602C346.847 197.947 344.232 195.786 341.017 195.786H208.984Z" fill="#3F3D56"/>
<path d="M236.092 357.307C234.582 357.312 233.136 357.913 232.069 358.98C231.001 360.048 230.4 361.494 230.396 363.003C230.4 364.513 231.001 365.959 232.069 367.026C233.136 368.093 234.582 368.695 236.092 368.699H246.754V357.307H236.092Z" fill="#3F3D56"/>
<path d="M256.539 357.307H246.169V368.699H256.539C258.049 368.695 259.495 368.093 260.562 367.026C261.629 365.959 262.231 364.513 262.235 363.003C262.231 361.494 261.629 360.048 260.562 358.98C259.495 357.913 258.049 357.312 256.539 357.307Z" fill="#DF6C8B"/>
<path opacity="0.2" d="M260.256 358.702C261.154 359.732 261.65 361.052 261.651 362.419C261.647 363.928 261.045 365.375 259.978 366.442C258.911 367.509 257.464 368.111 255.955 368.115H246.169V368.699H256.539C258.049 368.695 259.495 368.093 260.562 367.026C261.629 365.959 262.231 364.513 262.235 363.003C262.234 362.186 262.057 361.379 261.715 360.637C261.373 359.895 260.876 359.235 260.256 358.702Z" fill="black"/>
<path d="M284.205 271.508C283.166 270.413 281.736 269.773 280.228 269.729C278.719 269.684 277.254 270.239 276.153 271.271C275.057 272.309 274.418 273.739 274.373 275.248C274.329 276.756 274.883 278.221 275.915 279.323L283.228 287.081L291.518 279.267L284.205 271.508Z" fill="#3F3D56"/>
<path d="M298.23 286.387L291.117 278.842L282.828 286.656L289.941 294.202C290.979 295.297 292.409 295.937 293.918 295.981C295.426 296.026 296.891 295.472 297.993 294.439C299.088 293.401 299.728 291.971 299.772 290.463C299.817 288.954 299.263 287.489 298.23 286.387Z" fill="#DF6C8B"/>
<path opacity="0.2" d="M299.765 290.049C299.632 291.409 299.011 292.675 298.017 293.614C296.916 294.646 295.451 295.2 293.942 295.155C292.433 295.111 291.004 294.471 289.965 293.376L283.253 286.255L282.828 286.656L289.941 294.202C290.979 295.297 292.409 295.937 293.918 295.981C295.426 296.026 296.891 295.472 297.993 294.439C298.586 293.878 299.052 293.195 299.358 292.438C299.664 291.68 299.802 290.865 299.765 290.049Z" fill="black"/>
<path d="M253.856 289.47C252.817 288.375 251.387 287.735 249.879 287.69C248.37 287.646 246.905 288.2 245.804 289.232C244.708 290.271 244.069 291.701 244.024 293.209C243.979 294.718 244.534 296.183 245.566 297.284L252.879 305.043L261.169 297.228L253.856 289.47Z" fill="#3F3D56"/>
<path d="M267.881 304.349L260.768 296.803L252.479 304.618L259.592 312.163C260.63 313.259 262.06 313.898 263.569 313.943C265.077 313.988 266.542 313.433 267.644 312.401C268.739 311.363 269.379 309.933 269.423 308.424C269.468 306.915 268.913 305.45 267.881 304.349Z" fill="#DF6C8B"/>
<path opacity="0.2" d="M269.416 308.011C269.282 309.371 268.662 310.637 267.668 311.575C266.567 312.607 265.102 313.162 263.593 313.117C262.084 313.073 260.654 312.433 259.616 311.338L252.904 304.217L252.479 304.618L259.592 312.163C260.63 313.259 262.06 313.898 263.569 313.943C265.077 313.988 266.542 313.433 267.644 312.401C268.237 311.84 268.703 311.157 269.009 310.399C269.314 309.642 269.453 308.827 269.416 308.011Z" fill="black"/>
<path d="M284.205 306.193C283.166 305.098 281.736 304.458 280.228 304.413C278.719 304.369 277.254 304.923 276.153 305.955C275.057 306.994 274.418 308.424 274.373 309.932C274.329 311.441 274.883 312.906 275.915 314.007L283.228 321.766L291.518 313.951L284.205 306.193Z" fill="#3F3D56"/>
<path d="M298.23 321.072L291.117 313.526L282.828 321.341L289.941 328.886C290.979 329.982 292.409 330.621 293.918 330.666C295.426 330.711 296.891 330.156 297.993 329.124C299.088 328.086 299.728 326.656 299.772 325.147C299.817 323.638 299.263 322.173 298.23 321.072Z" fill="#DF6C8B"/>
<path opacity="0.2" d="M299.765 324.734C299.632 326.094 299.011 327.36 298.017 328.298C296.916 329.33 295.451 329.885 293.942 329.84C292.433 329.796 291.004 329.156 289.965 328.061L283.253 320.94L282.828 321.341L289.941 328.886C290.979 329.982 292.409 330.621 293.918 330.666C295.426 330.711 296.891 330.156 297.993 329.124C298.586 328.563 299.052 327.88 299.358 327.122C299.664 326.365 299.802 325.55 299.765 324.734Z" fill="black"/>
<path d="M302.719 341.786C303.802 340.735 304.424 339.297 304.45 337.788C304.477 336.279 303.904 334.821 302.859 333.732C301.807 332.649 300.37 332.027 298.861 332.001C297.352 331.975 295.893 332.547 294.805 333.592L287.136 340.999L295.05 349.193L302.719 341.786Z" fill="#3F3D56"/>
<path d="M288.012 355.992L295.471 348.788L287.556 340.593L280.097 347.798C279.015 348.849 278.392 350.287 278.366 351.796C278.34 353.305 278.912 354.763 279.957 355.852C281.009 356.934 282.447 357.557 283.956 357.583C285.465 357.609 286.923 357.037 288.012 355.992Z" fill="#DF6C8B"/>
<path opacity="0.2" d="M284.369 357.571C283.007 357.454 281.734 356.848 280.783 355.866C279.738 354.778 279.166 353.319 279.192 351.81C279.218 350.301 279.841 348.864 280.923 347.812L287.962 341.014L287.556 340.593L280.097 347.798C279.015 348.849 278.392 350.287 278.366 351.796C278.34 353.305 278.912 354.763 279.957 355.852C280.526 356.439 281.214 356.896 281.976 357.193C282.737 357.489 283.553 357.618 284.369 357.571Z" fill="black"/>
<path d="M261.841 323.825C262.923 322.773 263.546 321.335 263.572 319.826C263.598 318.317 263.026 316.859 261.981 315.77C260.929 314.688 259.491 314.065 257.982 314.039C256.473 314.013 255.015 314.585 253.926 315.63L246.257 323.038L254.172 331.232L261.841 323.825Z" fill="#3F3D56"/>
<path d="M247.133 338.03L254.592 330.826L246.678 322.632L239.219 329.836C238.136 330.888 237.514 332.325 237.488 333.834C237.461 335.343 238.034 336.802 239.079 337.89C240.131 338.973 241.568 339.595 243.077 339.621C244.586 339.648 246.045 339.075 247.133 338.03Z" fill="#DF6C8B"/>
<path opacity="0.2" d="M243.491 339.609C242.129 339.492 240.855 338.887 239.905 337.905C238.86 336.816 238.288 335.358 238.314 333.849C238.34 332.339 238.962 330.902 240.045 329.85L247.083 323.052L246.678 322.632L239.219 329.836C238.136 330.888 237.514 332.325 237.488 333.834C237.461 335.343 238.034 336.802 239.079 337.89C239.648 338.477 240.336 338.934 241.097 339.231C241.859 339.527 242.675 339.656 243.491 339.609Z" fill="black"/>
<path d="M320.061 302.147C321.144 301.095 321.766 299.658 321.793 298.148C321.819 296.639 321.247 295.181 320.201 294.092C319.15 293.01 317.712 292.387 316.203 292.361C314.694 292.335 313.236 292.907 312.147 293.952L304.478 301.36L312.392 309.554L320.061 302.147Z" fill="#3F3D56"/>
<path d="M305.354 316.352L312.813 309.148L304.898 300.954L297.44 308.158C296.357 309.21 295.735 310.647 295.708 312.156C295.682 313.665 296.254 315.124 297.3 316.212C298.351 317.295 299.789 317.917 301.298 317.943C302.807 317.97 304.265 317.398 305.354 316.352Z" fill="#DF6C8B"/>
<path opacity="0.2" d="M301.711 317.931C300.35 317.814 299.076 317.209 298.126 316.227C297.08 315.138 296.508 313.68 296.534 312.171C296.561 310.662 297.183 309.224 298.266 308.172L305.304 301.374L304.898 300.954L297.44 308.158C296.357 309.21 295.735 310.647 295.708 312.156C295.682 313.665 296.254 315.124 297.3 316.212C297.868 316.799 298.557 317.256 299.318 317.553C300.079 317.85 300.896 317.978 301.711 317.931Z" fill="black"/>
<path d="M307.121 347.071C306.083 345.976 304.653 345.336 303.144 345.292C301.636 345.247 300.171 345.802 299.069 346.834C297.974 347.872 297.334 349.302 297.29 350.811C297.245 352.319 297.799 353.784 298.831 354.886L306.145 362.644L314.435 354.83L307.121 347.071Z" fill="#3F3D56"/>
<path d="M321.147 361.95L314.034 354.405L305.744 362.219L312.857 369.765C313.896 370.86 315.325 371.5 316.834 371.544C318.343 371.589 319.808 371.035 320.909 370.003C322.004 368.964 322.644 367.534 322.689 366.026C322.733 364.517 322.179 363.052 321.147 361.95Z" fill="#DF6C8B"/>
<path opacity="0.2" d="M322.681 365.612C322.548 366.972 321.927 368.238 320.934 369.177C319.832 370.209 318.367 370.763 316.859 370.719C315.35 370.674 313.92 370.034 312.882 368.939L306.169 361.818L305.744 362.219L312.857 369.765C313.896 370.86 315.325 371.5 316.834 371.544C318.343 371.589 319.808 371.035 320.909 370.003C321.503 369.441 321.968 368.758 322.274 368.001C322.58 367.243 322.719 366.428 322.681 365.612Z" fill="black"/>
<path d="M266.862 346.452C265.824 345.357 264.394 344.717 262.885 344.672C261.377 344.628 259.912 345.182 258.81 346.214C257.715 347.253 257.075 348.683 257.031 350.191C256.986 351.7 257.541 353.165 258.573 354.266L265.886 362.025L274.176 354.21L266.862 346.452Z" fill="#3F3D56"/>
<path d="M280.888 361.331L273.775 353.785L265.485 361.6L272.598 369.145C273.637 370.241 275.067 370.881 276.575 370.925C278.084 370.97 279.549 370.415 280.65 369.383C281.746 368.345 282.385 366.915 282.43 365.406C282.475 363.898 281.92 362.432 280.888 361.331Z" fill="#DF6C8B"/>
<path opacity="0.2" d="M282.423 364.993C282.289 366.353 281.668 367.619 280.675 368.557C279.574 369.589 278.108 370.144 276.6 370.099C275.091 370.055 273.661 369.415 272.623 368.32L265.91 361.199L265.485 361.6L272.598 369.145C273.637 370.241 275.067 370.88 276.575 370.925C278.084 370.97 279.549 370.415 280.65 369.383C281.244 368.822 281.71 368.139 282.015 367.381C282.321 366.624 282.46 365.809 282.423 364.993Z" fill="black"/>
<path d="M278.195 326.017C278.195 327.911 277.541 329.746 276.344 331.213C275.146 332.68 273.478 333.689 271.623 334.067C270.539 334.286 269.421 334.286 268.337 334.067C266.482 333.688 264.814 332.68 263.617 331.213C262.419 329.746 261.765 327.911 261.765 326.017C261.765 324.123 262.419 322.288 263.617 320.821C264.814 319.354 266.482 318.346 268.337 317.966C269.421 317.747 270.539 317.747 271.623 317.966C273.478 318.345 275.146 319.353 276.344 320.82C277.541 322.287 278.195 324.123 278.195 326.017Z" fill="#DF6C8B"/>
<path opacity="0.2" d="M271.623 317.966V334.067C270.538 334.286 269.421 334.286 268.337 334.067V317.966C269.421 317.747 270.538 317.747 271.623 317.966Z" fill="black"/>
<path d="M281.911 293.19C281.911 295.084 281.257 296.92 280.06 298.387C278.862 299.854 277.195 300.862 275.339 301.241C274.255 301.46 273.138 301.46 272.053 301.241C270.198 300.862 268.531 299.853 267.333 298.386C266.136 296.92 265.481 295.084 265.481 293.19C265.481 291.297 266.136 289.461 267.333 287.994C268.531 286.527 270.198 285.519 272.053 285.14C273.138 284.921 274.255 284.921 275.339 285.14C277.195 285.519 278.862 286.527 280.06 287.994C281.257 289.461 281.911 291.297 281.911 293.19Z" fill="#DF6C8B"/>
<path opacity="0.2" d="M275.339 285.14V301.241C274.255 301.46 273.138 301.46 272.053 301.241V285.14C273.138 284.921 274.255 284.921 275.339 285.14Z" fill="black"/>
<path d="M281.911 340.262C281.911 342.156 281.257 343.992 280.06 345.459C278.862 346.926 277.195 347.934 275.339 348.313C274.255 348.532 273.138 348.532 272.053 348.313C270.198 347.934 268.531 346.925 267.333 345.459C266.136 343.992 265.481 342.156 265.481 340.262C265.481 338.369 266.136 336.533 267.333 335.066C268.531 333.599 270.198 332.591 272.053 332.212C273.138 331.993 274.255 331.993 275.339 332.212C277.195 332.591 278.862 333.599 280.06 335.066C281.257 336.533 281.911 338.369 281.911 340.262Z" fill="#DF6C8B"/>
<path opacity="0.2" d="M275.339 332.212V348.313C274.255 348.532 273.138 348.532 272.053 348.313V332.212C273.138 331.993 274.255 331.993 275.339 332.212Z" fill="black"/>
<path d="M302.35 363.179C302.35 365.073 301.696 366.909 300.499 368.376C299.301 369.843 297.634 370.851 295.778 371.23C294.694 371.449 293.577 371.449 292.492 371.23C290.637 370.85 288.969 369.842 287.772 368.375C286.574 366.908 285.92 365.073 285.92 363.179C285.92 361.285 286.574 359.45 287.772 357.983C288.969 356.516 290.637 355.508 292.492 355.129C293.577 354.91 294.694 354.91 295.778 355.129C297.634 355.507 299.301 356.516 300.499 357.983C301.696 359.45 302.35 361.285 302.35 363.179Z" fill="#DF6C8B"/>
<path opacity="0.2" d="M295.778 355.129V371.23C294.694 371.449 293.577 371.449 292.492 371.23V355.129C293.577 354.91 294.694 354.91 295.778 355.129Z" fill="black"/>
<path d="M320.406 321.015C321.769 322.329 322.637 324.074 322.862 325.954C323.088 327.834 322.656 329.735 321.641 331.334C321.046 332.266 320.271 333.071 319.361 333.7C317.8 334.772 315.917 335.273 314.03 335.117C312.143 334.961 310.367 334.159 309.004 332.844C307.64 331.53 306.773 329.785 306.548 327.905C306.322 326.025 306.754 324.125 307.768 322.526C308.363 321.593 309.138 320.789 310.049 320.16C311.609 319.087 313.492 318.586 315.379 318.742C317.267 318.897 319.042 319.701 320.406 321.015Z" fill="#DF6C8B"/>
<path opacity="0.2" d="M310.049 320.16L321.642 331.334C321.047 332.266 320.272 333.071 319.361 333.699L307.769 322.526C308.363 321.593 309.139 320.789 310.049 320.16Z" fill="black"/>
<path d="M322.883 338.977C324.247 340.291 325.115 342.036 325.34 343.916C325.565 345.796 325.134 347.697 324.119 349.295C323.524 350.228 322.749 351.033 321.838 351.661C320.278 352.734 318.395 353.235 316.508 353.079C314.62 352.923 312.845 352.12 311.481 350.806C310.118 349.492 309.25 347.747 309.025 345.867C308.8 343.987 309.231 342.086 310.246 340.487C310.841 339.555 311.616 338.75 312.526 338.122C314.086 337.049 315.97 336.547 317.857 336.703C319.744 336.859 321.52 337.662 322.883 338.977Z" fill="#DF6C8B"/>
<path opacity="0.2" d="M312.526 338.122L324.119 349.295C323.524 350.228 322.749 351.032 321.838 351.661L310.246 340.487C310.84 339.555 311.616 338.75 312.526 338.122Z" fill="black"/>
<path d="M249.178 343.312C250.542 344.626 251.41 346.371 251.635 348.251C251.86 350.132 251.429 352.032 250.414 353.631C249.819 354.564 249.044 355.368 248.133 355.997C246.573 357.07 244.69 357.57 242.802 357.415C240.915 357.259 239.14 356.456 237.776 355.142C236.413 353.828 235.545 352.083 235.32 350.203C235.095 348.322 235.526 346.422 236.541 344.823C237.135 343.89 237.911 343.086 238.821 342.457C240.381 341.384 242.265 340.883 244.152 341.039C246.039 341.195 247.815 341.998 249.178 343.312Z" fill="#DF6C8B"/>
<path opacity="0.2" d="M238.821 342.457L250.414 353.631C249.819 354.564 249.044 355.368 248.134 355.997L236.541 344.823C237.136 343.89 237.911 343.086 238.821 342.457Z" fill="black"/>
<path opacity="0.2" d="M222.663 195.786H219.566V218.703H222.663V195.786Z" fill="black"/>
<path opacity="0.2" d="M240.625 195.786H237.528V218.703H240.625V195.786Z" fill="black"/>
<path opacity="0.2" d="M258.587 195.786H255.49V218.703H258.587V195.786Z" fill="black"/>
<path opacity="0.2" d="M276.549 195.786H273.452V218.703H276.549V195.786Z" fill="black"/>
<path opacity="0.2" d="M294.51 195.786H291.413V218.703H294.51V195.786Z" fill="black"/>
<path opacity="0.2" d="M312.472 195.786H309.375V218.703H312.472V195.786Z" fill="black"/>
<path opacity="0.2" d="M330.434 195.786H327.337V218.703H330.434V195.786Z" fill="black"/>
</g>
<defs>
<clipPath id="clip0_175_363">
<rect width="550" height="382.836" fill="white"/>
</clipPath>
</defs>
</svg>
