<svg width="550" height="574" viewBox="0 0 550 574" fill="none" xmlns="http://www.w3.org/2000/svg">
<g clip-path="url(#clip0_176_471)">
<path d="M521.218 534.344C521.218 555.933 404.541 573.435 260.609 573.435C116.677 573.435 0 555.933 0 534.344C0 519.061 58.4857 505.82 143.722 499.397C178.87 496.741 218.584 495.253 260.609 495.253C277.885 495.253 294.766 495.505 311.092 495.984C430.863 499.515 521.218 515.345 521.218 534.344Z" fill="#021E49"/>
<path opacity="0.1" d="M226.982 542.33C282.233 542.33 327.022 536.873 327.022 530.141C327.022 523.408 282.233 517.951 226.982 517.951C171.731 517.951 126.942 523.408 126.942 530.141C126.942 536.873 171.731 542.33 226.982 542.33Z" fill="black"/>
<path d="M226.562 538.968C278.795 538.968 321.138 493.802 321.138 438.087C321.138 382.372 278.795 337.206 226.562 337.206C174.329 337.206 131.986 382.372 131.986 438.087C131.986 493.802 174.329 538.968 226.562 538.968Z" fill="#021E49"/>
<path d="M256.406 497.775H197.559V551.578H256.406V497.775Z" fill="#FFF5E7"/>
<path d="M333.328 510.806L329.965 529.3L351.822 532.663L366.114 524.256L365.273 510.806H333.328Z" fill="#575A89"/>
<path d="M223.199 163.607C223.199 163.607 221.518 182.942 217.314 183.783C213.111 184.623 226.562 218.25 226.562 218.25H246.738L262.711 214.047L255.144 195.552C255.144 195.552 245.056 182.101 252.622 171.173C260.189 160.244 223.199 163.607 223.199 163.607Z" fill="#A0616A"/>
<path opacity="0.1" d="M223.199 163.607C223.199 163.607 221.518 182.942 217.314 183.783C213.111 184.623 226.562 218.25 226.562 218.25H246.738L262.711 214.047L255.144 195.552C255.144 195.552 245.056 182.101 252.622 171.173C260.189 160.244 223.199 163.607 223.199 163.607Z" fill="black"/>
<path d="M181.165 311.565C181.165 311.565 159.308 353.599 176.962 362.006C194.616 370.413 198.82 369.572 198.82 372.094C198.82 374.616 195.457 373.775 197.138 377.979C198.82 382.182 193.776 398.995 198.82 409.084C203.864 419.172 202.182 426.738 202.182 426.738C202.182 426.738 202.182 427.578 203.864 430.941C205.545 434.304 206.386 436.826 205.545 438.507C204.704 440.189 199.66 451.117 204.704 453.639C209.748 456.161 235.809 457.843 238.331 453.639C240.853 449.436 235.809 446.914 238.331 444.392C240.853 441.87 242.535 441.029 240.853 439.348C239.172 437.666 237.491 416.65 237.491 416.65C237.491 416.65 241.694 392.27 240.013 388.907C238.331 385.545 235.809 382.182 237.491 379.66C239.172 377.138 240.853 377.979 241.694 374.616C242.535 371.253 244.216 363.687 244.216 363.687L253.464 362.846L275.321 367.05C275.321 367.05 299.701 393.951 326.602 402.358C326.602 402.358 334.168 409.924 336.69 409.924C339.212 409.924 339.212 409.924 338.372 411.606C337.531 413.287 335.009 413.287 336.69 414.968C338.372 416.65 340.894 414.128 339.212 416.65C337.531 419.172 335.85 419.172 337.531 420.853C339.212 422.534 336.69 431.782 336.69 432.622C336.69 433.463 329.124 512.487 331.646 514.168C334.168 515.849 369.477 520.893 371.999 514.168C374.521 507.442 370.317 499.036 370.317 499.036C370.317 499.036 382.927 398.155 379.565 391.429C376.202 384.704 364.433 354.44 301.382 335.104C301.382 335.104 283.728 331.742 283.728 329.219C283.728 326.697 282.046 310.725 278.684 309.884C275.321 309.043 255.986 308.203 255.986 308.203L231.606 315.769L197.979 309.884L181.165 311.565Z" fill="#2F2E41"/>
<path d="M210.589 452.799L206.386 467.931C206.386 467.931 203.023 492.31 207.226 498.195C210.528 502.817 216.423 508.477 227.356 509.47C230.42 509.751 233.488 508.978 236.053 507.279C238.618 505.579 240.526 503.055 241.461 500.124C241.587 499.773 241.665 499.407 241.694 499.036C241.694 497.354 239.172 477.178 239.172 477.178L234.969 456.161L234.128 450.277L210.589 452.799Z" fill="#2F2E41"/>
<path d="M333.327 525.097C333.327 525.097 329.124 520.893 328.283 525.097C327.443 529.3 324.08 546.954 329.965 547.795C335.849 548.636 392.174 557.042 398.059 553.68C403.944 550.317 414.873 545.273 408.147 542.751C401.422 540.229 382.086 532.663 382.086 532.663C382.086 532.663 371.158 518.371 369.476 517.531C367.795 516.69 358.547 518.371 354.344 521.734C350.141 525.097 333.327 525.097 333.327 525.097Z" fill="#2F2E41"/>
<path d="M243.375 181.261C257.768 181.261 269.436 169.593 269.436 155.2C269.436 140.807 257.768 129.139 243.375 129.139C228.982 129.139 217.314 140.807 217.314 155.2C217.314 169.593 228.982 181.261 243.375 181.261Z" fill="#A0616A"/>
<path d="M240.853 214.047L230.765 203.118L219.583 181.261C219.583 181.261 211.43 178.739 209.748 182.942C208.067 187.146 177.803 200.596 177.803 200.596C177.803 200.596 185.369 271.213 182.006 277.938C178.643 284.664 172.759 311.565 177.803 314.087C182.847 316.609 206.386 314.087 213.952 317.45C221.518 320.813 243.375 320.813 249.26 316.609C255.145 312.406 256.826 309.043 262.711 311.565C267.721 313.712 279.432 240.309 282.804 218.435C283.088 216.597 282.852 214.717 282.123 213.007C281.394 211.297 280.201 209.825 278.678 208.759C271.135 203.468 257.55 194.35 255.145 195.552C251.782 197.234 240.853 214.047 240.853 214.047Z" fill="#003485"/>
<path d="M277.002 210.684C278.976 211.178 280.752 212.264 282.091 213.796C283.43 215.328 284.268 217.233 284.493 219.256L291.294 280.46C291.294 280.46 274.48 316.609 266.073 292.23C257.667 267.85 277.002 210.684 277.002 210.684Z" fill="#003485"/>
<path d="M275.321 286.345L293.816 281.301C293.816 281.301 297.178 304.84 300.541 304.84C303.904 304.84 288.772 318.291 281.206 316.609C273.64 314.928 262.711 309.043 261.87 304.84C261.029 300.637 269.436 282.982 269.436 282.982L275.321 286.345Z" fill="#003485"/>
<path d="M223.702 166.442C225.474 162.535 225.167 157.977 226.632 153.944C227.416 151.785 228.689 149.836 230.351 148.25C232.014 146.665 234.02 145.484 236.214 144.802C238.408 144.12 240.729 143.954 242.998 144.318C245.266 144.682 247.42 145.565 249.29 146.899C251.175 148.243 253.064 150.131 255.365 149.874C257.842 149.598 260.052 146.834 262.329 147.847C264.853 148.97 264.172 153.494 266.729 154.538C268.075 155.089 269.666 154.242 270.443 153.012C271.122 151.72 271.492 150.288 271.523 148.829C271.876 145.243 272.195 141.448 270.64 138.198C269.986 137.097 269.416 135.948 268.935 134.76C268.663 133.651 268.554 132.509 268.611 131.369C268.597 127.154 268.289 122.758 266.168 119.116C263.815 115.075 259.464 112.491 254.926 111.363C250.387 110.236 245.632 110.409 240.972 110.803C233.269 111.455 225.235 112.853 219.166 117.642C218.341 118.245 217.631 118.991 217.07 119.844C216.537 120.858 216.161 121.947 215.954 123.074C214.641 128.417 212.674 133.578 210.096 138.439C208.856 140.5 207.843 142.688 207.074 144.967C206.43 147.283 206.473 149.922 207.821 151.912C208.917 153.532 210.671 154.396 212.049 155.72C213.414 157.033 214.053 159.558 215.565 160.552C216.885 161.419 218.466 160.807 219.813 161.726C221.541 162.907 221.666 165.496 223.702 166.442Z" fill="#2F2E41"/>
<path d="M245.057 226.657L247.579 221.613C247.579 221.613 284.568 232.542 292.134 242.63C292.134 242.63 310.629 230.861 320.717 232.542L330.805 234.223L299.7 261.966L260.189 258.603L245.057 226.657Z" fill="#F2F2F2"/>
<g filter="url(#filter0_d_176_471)">
<path d="M243.375 221.613L208.908 269.532L258.508 293.911C258.508 293.911 263.144 296.433 266.711 293.911L299.701 278.779L330.806 234.223L299.701 250.196C299.701 250.196 296.338 243.471 289.612 246.833L243.375 221.613Z" fill="#FFF5E7"/>
<path d="M299.253 250.42L299.253 250.418L299.247 250.408C299.242 250.398 299.233 250.381 299.222 250.36C299.198 250.317 299.162 250.251 299.113 250.169C299.014 250.003 298.865 249.766 298.666 249.492C298.265 248.941 297.668 248.246 296.879 247.654C296.091 247.063 295.12 246.581 293.964 246.436C292.812 246.292 291.439 246.479 289.836 247.281L289.602 247.397L289.373 247.272L243.523 222.263L209.659 269.344L258.728 293.462L258.737 293.467L299.253 250.42ZM299.253 250.42L299.254 250.42L299.254 250.42L299.254 250.42L299.479 250.872L299.929 250.641L329.243 235.588L299.368 278.381L266.502 293.457L266.46 293.476L266.422 293.503C264.796 294.653 262.905 294.668 261.368 294.366C260.604 294.216 259.943 293.99 259.474 293.802C259.24 293.708 259.055 293.624 258.93 293.564C258.867 293.534 258.82 293.51 258.789 293.494L258.755 293.476L258.747 293.472L258.746 293.472L258.746 293.472L258.746 293.472L299.253 250.42Z" stroke="#021E49"/>
</g>
<path d="M296.338 306.521L303.063 288.867C303.063 288.867 318.195 269.532 309.788 260.284C301.382 251.037 292.134 287.186 292.134 287.186L296.338 306.521Z" fill="#A0616A"/>
<path d="M218.742 303.704L233.417 291.807C233.417 291.807 256.207 282.673 253.575 270.456C250.942 258.239 224.807 284.869 224.807 284.869L218.742 303.704Z" fill="#A0616A"/>
<path opacity="0.1" d="M182.426 218.671H181.586C181.586 218.671 168.555 203.118 166.033 224.135C163.511 245.152 155.104 314.928 176.962 317.45C198.819 319.972 214.372 306.942 214.372 306.942C214.372 306.942 230.345 282.562 224.46 282.562C221.613 282.562 213.869 281.283 206.806 281.721C199.271 282.189 192.501 284.311 192.935 282.142C193.775 277.938 205.965 224.556 182.426 218.671Z" fill="black"/>
<path d="M181.166 202.278L177.803 200.596C177.803 200.596 164.352 203.118 161.83 224.135C159.308 245.152 150.901 314.928 172.759 317.45C194.616 319.972 224.04 314.087 224.04 314.087C224.04 314.087 229.925 282.142 224.04 282.142C218.155 282.142 187.891 286.345 188.732 282.142C189.572 277.938 204.704 208.162 181.166 202.278Z" fill="#003485"/>
<path d="M284.148 296.854L293.418 282.646L299.28 306.101L284.148 312.827V296.854Z" fill="#003485"/>
<g filter="url(#filter1_d_176_471)">
<path d="M93.7129 94.251C106.249 94.251 116.411 84.0887 116.411 71.5528C116.411 59.0169 106.249 48.8546 93.7129 48.8546C81.177 48.8546 71.0146 59.0169 71.0146 71.5528C71.0146 84.0887 81.177 94.251 93.7129 94.251Z" fill="#FFF5E7"/>
<path d="M115.911 71.5528C115.911 83.8125 105.973 93.751 93.7129 93.751C81.4531 93.751 71.5146 83.8125 71.5146 71.5528C71.5146 59.293 81.4531 49.3546 93.7129 49.3546C105.973 49.3546 115.911 59.293 115.911 71.5528Z" stroke="#021E49"/>
</g>
<g filter="url(#filter2_d_176_471)">
<path d="M120.614 240.528H66.811V294.331H120.614V240.528Z" fill="#FFF5E7"/>
<path d="M67.311 293.831V241.028H120.114V293.831H67.311Z" stroke="#021E49"/>
</g>
<g filter="url(#filter3_d_176_471)">
<path d="M312.731 0L326.349 23.5868L339.966 47.1736H312.731H285.496L299.113 23.5868L312.731 0Z" fill="#FFF5E7"/>
<path d="M299.546 23.8368L312.731 0.999986L325.916 23.8368L339.1 46.6736H312.731H286.362L299.546 23.8368Z" stroke="#021E49"/>
</g>
<path d="M550 141.426C549.675 151.489 547.224 159.555 542.648 165.623C538.072 171.693 532.635 174.728 526.338 174.728C521.209 174.728 516.713 171.758 512.851 165.818C508.988 159.878 507.057 150.741 507.058 138.407C507.058 135.681 507.123 133.084 507.252 130.617C507.382 128.151 507.544 125.814 507.739 123.606L511.147 91.5698H488.654C484.759 132.078 481.562 156.178 479.062 163.871C476.563 171.563 472.327 175.41 466.355 175.41C463.659 175.344 461.087 174.266 459.149 172.391C458.025 171.396 457.137 170.163 456.547 168.782C455.958 167.401 455.682 165.907 455.741 164.406C455.741 161.421 458.094 157.25 462.8 151.894C467.507 146.538 470.12 141.653 470.639 137.239L476.482 91.5698H467.037C464.374 91.5857 461.753 92.2366 459.393 93.4685C457.22 94.4664 455.329 95.989 453.891 97.899L449.704 104.131H446.295C449.475 94.2642 453.387 86.8475 458.029 81.8809C462.67 76.9147 468.009 74.4316 474.047 74.4317H548.442V91.5698H523.319C522.54 99.3598 521.94 107.15 521.518 114.94C521.095 122.73 520.884 130.552 520.885 138.407C520.885 143.731 522.118 148.048 524.585 151.358C527.052 154.669 530.135 156.324 533.836 156.324C536.108 156.324 538.493 155.399 540.993 153.549C542.18 152.716 543.173 151.637 543.904 150.385C544.635 149.133 545.087 147.738 545.229 146.295C545.424 144.867 545.57 143.747 545.667 142.935C545.764 142.124 545.813 141.621 545.813 141.426L550 141.426Z" fill="#6C63FF"/>
<path opacity="0.1" d="M550 141.426C549.675 151.489 547.224 159.555 542.648 165.623C538.072 171.693 532.635 174.728 526.338 174.728C521.209 174.728 516.713 171.758 512.851 165.818C508.988 159.878 507.057 150.741 507.058 138.407C507.058 135.681 507.123 133.084 507.252 130.617C507.382 128.151 507.544 125.814 507.739 123.606L511.147 91.5698H488.654C484.759 132.078 481.562 156.178 479.062 163.871C476.563 171.563 472.327 175.41 466.355 175.41C463.659 175.344 461.087 174.266 459.149 172.391C458.025 171.396 457.137 170.163 456.547 168.782C455.958 167.401 455.682 165.907 455.741 164.406C455.741 161.421 458.094 157.25 462.8 151.894C467.507 146.538 470.12 141.653 470.639 137.239L476.482 91.5698H467.037C464.374 91.5857 461.753 92.2366 459.393 93.4685C457.22 94.4664 455.329 95.989 453.891 97.899L449.704 104.131H446.295C449.475 94.2642 453.387 86.8475 458.029 81.8809C462.67 76.9147 468.009 74.4316 474.047 74.4317H548.442V91.5698H523.319C522.54 99.3598 521.94 107.15 521.518 114.94C521.095 122.73 520.884 130.552 520.885 138.407C520.885 143.731 522.118 148.048 524.585 151.358C527.052 154.669 530.135 156.324 533.836 156.324C536.108 156.324 538.493 155.399 540.993 153.549C542.18 152.716 543.173 151.637 543.904 150.385C544.635 149.133 545.087 147.738 545.229 146.295C545.424 144.867 545.57 143.747 545.667 142.935C545.764 142.124 545.813 141.621 545.813 141.426L550 141.426Z" fill="black"/>
<g filter="url(#filter4_d_176_471)">
<path d="M550 138.383C549.675 148.447 547.224 156.512 542.648 162.581C538.072 168.65 532.635 171.685 526.338 171.686C521.209 171.686 516.713 168.716 512.851 162.776C508.988 156.836 507.057 147.699 507.058 135.365C507.058 132.638 507.123 130.042 507.252 127.575C507.382 125.108 507.544 122.771 507.739 120.564L511.147 88.5274H488.654C484.759 129.035 481.562 153.136 479.062 160.828C476.563 168.521 472.327 172.367 466.355 172.368C463.659 172.301 461.087 171.224 459.149 169.349C458.025 168.353 457.137 167.12 456.547 165.739C455.958 164.359 455.682 162.864 455.741 161.364C455.741 158.379 458.094 154.208 462.8 148.851C467.507 143.496 470.12 138.611 470.639 134.196L476.482 88.5274H467.037C464.374 88.5433 461.753 89.1942 459.393 90.4261C457.22 91.424 455.329 92.9466 453.891 94.8566L449.704 101.089H446.295C449.475 91.2218 453.387 83.8051 458.029 78.8385C462.67 73.8723 468.009 71.3892 474.047 71.3893H548.442V88.5274H523.319C522.54 96.3174 521.94 104.107 521.518 111.897C521.095 119.687 520.884 127.51 520.885 135.365C520.885 140.689 522.118 145.006 524.585 148.316C527.052 151.627 530.135 153.282 533.836 153.282C536.108 153.282 538.493 152.357 540.993 150.507C542.18 149.674 543.173 148.595 543.904 147.343C544.635 146.09 545.087 144.695 545.229 143.252C545.424 141.825 545.57 140.705 545.667 139.893C545.764 139.082 545.813 138.579 545.813 138.383H550Z" fill="#FFF5E7"/>
<path d="M466.361 171.868C469.226 171.866 471.654 170.947 473.675 169.112C475.707 167.267 477.353 164.47 478.587 160.674C479.82 156.878 481.239 148.976 482.839 136.918C484.436 124.876 486.209 108.731 488.156 88.4795L488.199 88.0274H488.654H511.147H511.703L511.645 88.5803L508.237 120.608C508.237 120.609 508.237 120.611 508.237 120.612C508.043 122.812 507.881 125.142 507.752 127.601L507.752 127.601C507.622 130.058 507.558 132.646 507.558 135.365C507.557 147.665 509.487 156.685 513.271 162.503L513.271 162.503C517.079 168.361 521.438 171.186 526.338 171.186C532.445 171.185 537.745 168.253 542.249 162.28C546.668 156.42 549.092 148.635 549.482 138.883H546.281C546.256 139.157 546.216 139.515 546.163 139.952C546.163 139.952 546.163 139.952 546.163 139.952L545.667 139.893C545.57 140.705 545.424 141.825 545.229 143.252L466.361 171.868ZM466.361 171.868C463.793 171.803 461.343 170.776 459.497 168.99L459.489 168.982L459.481 168.975C458.412 168.028 457.568 166.856 457.007 165.543C456.447 164.23 456.185 162.81 456.24 161.383L456.241 161.374V161.364C456.241 159.995 456.784 158.294 457.941 156.243C459.095 154.198 460.836 151.845 463.176 149.181C467.911 143.793 470.598 138.816 471.135 134.258C471.136 134.257 471.136 134.256 471.136 134.255L476.978 88.5908L477.05 88.0274H476.482L467.037 88.0274L467.034 88.0274C464.296 88.0437 461.601 88.7121 459.173 89.977C456.929 91.0096 454.977 92.5829 453.491 94.5559L453.483 94.5666L453.476 94.5778L449.437 100.589H446.984C450.113 91.0861 453.924 83.963 458.395 79.1799L458.395 79.1799C462.954 74.3008 468.166 71.8892 474.047 71.8893H547.942V88.0274H523.319H522.867L522.822 88.4776C522.042 96.2752 521.441 104.073 521.019 111.87C520.595 119.669 520.384 127.501 520.385 135.365C520.385 140.765 521.637 145.196 524.184 148.615C526.733 152.035 529.957 153.782 533.836 153.782C536.246 153.782 538.733 152.801 541.285 150.912C542.529 150.039 543.57 148.907 544.336 147.595C545.102 146.283 545.576 144.822 545.726 143.311L466.361 171.868Z" stroke="#021E49"/>
</g>
</g>
<defs>
<filter id="filter0_d_176_471" x="204.908" y="221.613" width="129.898" height="81.4189" filterUnits="userSpaceOnUse" color-interpolation-filters="sRGB">
<feFlood flood-opacity="0" result="BackgroundImageFix"/>
<feColorMatrix in="SourceAlpha" type="matrix" values="0 0 0 0 0 0 0 0 0 0 0 0 0 0 0 0 0 0 127 0" result="hardAlpha"/>
<feOffset dy="4"/>
<feGaussianBlur stdDeviation="2"/>
<feComposite in2="hardAlpha" operator="out"/>
<feColorMatrix type="matrix" values="0 0 0 0 0 0 0 0 0 0 0 0 0 0 0 0 0 0 0.25 0"/>
<feBlend mode="normal" in2="BackgroundImageFix" result="effect1_dropShadow_176_471"/>
<feBlend mode="normal" in="SourceGraphic" in2="effect1_dropShadow_176_471" result="shape"/>
</filter>
<filter id="filter1_d_176_471" x="67.0146" y="48.8546" width="53.3965" height="53.3964" filterUnits="userSpaceOnUse" color-interpolation-filters="sRGB">
<feFlood flood-opacity="0" result="BackgroundImageFix"/>
<feColorMatrix in="SourceAlpha" type="matrix" values="0 0 0 0 0 0 0 0 0 0 0 0 0 0 0 0 0 0 127 0" result="hardAlpha"/>
<feOffset dy="4"/>
<feGaussianBlur stdDeviation="2"/>
<feComposite in2="hardAlpha" operator="out"/>
<feColorMatrix type="matrix" values="0 0 0 0 0 0 0 0 0 0 0 0 0 0 0 0 0 0 0.25 0"/>
<feBlend mode="normal" in2="BackgroundImageFix" result="effect1_dropShadow_176_471"/>
<feBlend mode="normal" in="SourceGraphic" in2="effect1_dropShadow_176_471" result="shape"/>
</filter>
<filter id="filter2_d_176_471" x="62.811" y="240.528" width="61.8032" height="61.8032" filterUnits="userSpaceOnUse" color-interpolation-filters="sRGB">
<feFlood flood-opacity="0" result="BackgroundImageFix"/>
<feColorMatrix in="SourceAlpha" type="matrix" values="0 0 0 0 0 0 0 0 0 0 0 0 0 0 0 0 0 0 127 0" result="hardAlpha"/>
<feOffset dy="4"/>
<feGaussianBlur stdDeviation="2"/>
<feComposite in2="hardAlpha" operator="out"/>
<feColorMatrix type="matrix" values="0 0 0 0 0 0 0 0 0 0 0 0 0 0 0 0 0 0 0.25 0"/>
<feBlend mode="normal" in2="BackgroundImageFix" result="effect1_dropShadow_176_471"/>
<feBlend mode="normal" in="SourceGraphic" in2="effect1_dropShadow_176_471" result="shape"/>
</filter>
<filter id="filter3_d_176_471" x="281.496" y="0" width="62.4707" height="55.1736" filterUnits="userSpaceOnUse" color-interpolation-filters="sRGB">
<feFlood flood-opacity="0" result="BackgroundImageFix"/>
<feColorMatrix in="SourceAlpha" type="matrix" values="0 0 0 0 0 0 0 0 0 0 0 0 0 0 0 0 0 0 127 0" result="hardAlpha"/>
<feOffset dy="4"/>
<feGaussianBlur stdDeviation="2"/>
<feComposite in2="hardAlpha" operator="out"/>
<feColorMatrix type="matrix" values="0 0 0 0 0 0 0 0 0 0 0 0 0 0 0 0 0 0 0.25 0"/>
<feBlend mode="normal" in2="BackgroundImageFix" result="effect1_dropShadow_176_471"/>
<feBlend mode="normal" in="SourceGraphic" in2="effect1_dropShadow_176_471" result="shape"/>
</filter>
<filter id="filter4_d_176_471" x="442.295" y="71.3893" width="111.705" height="108.978" filterUnits="userSpaceOnUse" color-interpolation-filters="sRGB">
<feFlood flood-opacity="0" result="BackgroundImageFix"/>
<feColorMatrix in="SourceAlpha" type="matrix" values="0 0 0 0 0 0 0 0 0 0 0 0 0 0 0 0 0 0 127 0" result="hardAlpha"/>
<feOffset dy="4"/>
<feGaussianBlur stdDeviation="2"/>
<feComposite in2="hardAlpha" operator="out"/>
<feColorMatrix type="matrix" values="0 0 0 0 0 0 0 0 0 0 0 0 0 0 0 0 0 0 0.25 0"/>
<feBlend mode="normal" in2="BackgroundImageFix" result="effect1_dropShadow_176_471"/>
<feBlend mode="normal" in="SourceGraphic" in2="effect1_dropShadow_176_471" result="shape"/>
</filter>
<clipPath id="clip0_176_471">
<rect width="550" height="573.435" fill="white"/>
</clipPath>
</defs>
</svg>
