<svg width="476" height="422" viewBox="0 0 476 422" fill="none" xmlns="http://www.w3.org/2000/svg">
<g clip-path="url(#clip0_162_229)">
<path d="M202.111 340.973C201.627 339.872 201.245 338.7 201.045 337.512C201.08 337.446 201.108 337.377 201.132 337.314C201.199 337.136 201.267 336.895 201.333 336.626C201.466 336.082 201.607 335.358 201.728 334.628C201.849 333.898 201.953 333.151 202.011 332.56C202.039 332.266 202.058 332.001 202.06 331.793C202.061 331.701 202.059 331.611 202.051 331.529C202.227 331.285 202.456 331.075 202.731 330.831C202.748 330.816 202.766 330.801 202.783 330.785C203.09 330.515 203.452 330.195 203.732 329.772L203.315 329.496L203.732 329.772C204.937 327.952 206.248 327.371 207.358 327.636C208.513 327.912 209.746 329.161 210.631 331.688L210.694 331.866L210.858 331.958C212.68 332.982 213.537 334.3 213.71 335.718C213.887 337.161 213.366 338.807 212.221 340.48C211.419 341.653 210.971 343.018 210.567 344.33C210.535 344.436 210.502 344.541 210.47 344.645C210.096 345.866 209.739 347.031 209.158 348.065L209.005 348.339L209.185 348.597C209.256 348.697 209.327 348.795 209.395 348.889L209.397 348.892C209.467 348.988 209.534 349.08 209.599 349.173C212.077 352.713 214.222 356.52 216.03 360.522L216.982 360.259C216.477 355.861 217.227 350.547 218.494 347.143L218.495 347.143C219.671 343.983 221.68 341.236 223.716 338.452C224.18 337.817 224.646 337.18 225.104 336.536C226.438 334.658 228.443 334.15 230.17 334.675C231.864 335.19 233.329 336.715 233.613 339.039C233.332 339.223 233.056 339.415 232.784 339.615C231.613 340.478 231.251 341.904 231.498 343.14C231.72 344.255 232.457 345.301 233.641 345.675C233.508 346.957 233.301 348.227 233.013 349.477L232.986 349.59L233.013 349.703C234.555 356.346 233.631 360.744 231.278 363.508C228.914 366.284 224.995 367.546 220.248 367.654L220.121 367.657L220.011 367.72C219.954 367.753 219.899 367.784 219.845 367.816C219.689 367.905 219.541 367.99 219.389 368.073L219.025 368.27L219.151 368.664C220.119 371.701 220.893 374.817 221.466 377.975L221.467 377.976C221.981 380.767 222.338 383.587 222.538 386.421C222.787 389.993 222.765 393.584 222.495 397.153L223.489 397.254L223.504 397.138C224.18 393.285 226.059 389.698 228.766 387.221L228.766 387.221C230.792 385.368 233.248 384.089 235.801 382.879C236.212 382.684 236.626 382.491 237.042 382.297C239.184 381.298 241.353 380.285 243.272 378.977C244.17 378.365 245.179 378.452 245.94 378.985C246.675 379.5 247.183 380.438 247.074 381.589C246.472 381.874 245.885 382.196 245.315 382.551L245.314 382.552C244.942 382.786 244.578 383.034 244.222 383.296L244.519 383.699L244.222 383.296C243.051 384.159 242.689 385.586 242.935 386.822C243.156 387.927 243.883 388.966 245.051 389.347C243.938 392.135 242.436 394.719 240.586 396.963L240.501 397.067L240.479 397.199C239.523 402.951 237.021 405.978 233.774 407.215C230.482 408.469 226.286 407.94 221.848 406.248L221.762 406.215H221.67H221.664H221.257L221.175 406.614C220.223 411.23 218.844 415.741 217.076 420.048H207.049L207.13 420.031L206.67 419.403C206.108 418.634 205.545 417.862 204.982 417.089L204.98 417.087C204.416 416.313 203.852 415.539 203.288 414.768L203.273 414.748L203.257 414.73C203.25 414.722 203.243 414.713 203.22 414.681L203.218 414.679C202.932 414.285 202.645 413.892 202.359 413.5L202.357 413.497C202.1 413.147 201.845 412.797 201.59 412.447C201.57 410.25 201.797 408.058 202.241 405.922C203.159 405.808 203.836 405.132 204.141 404.34C204.48 403.46 204.401 402.353 203.68 401.504L203.61 401.195C204.419 399.048 206.167 398.02 207.885 398.028C209.603 398.036 211.35 399.081 212.153 401.234C212.487 402.13 212.837 403.019 213.186 403.905C214.48 407.192 215.759 410.439 216.135 413.838L216.135 413.839C216.347 415.727 216.251 417.652 215.875 419.508L216.827 419.798C220.485 410.898 222.409 401.181 222.409 391.409C222.409 388.953 222.289 386.498 222.042 384.048L222.042 384.048C221.839 382.045 221.559 380.054 221.197 378.08L221.197 378.08C219.24 367.419 215.002 357.26 208.884 348.769L208.825 348.687L208.738 348.635C205.909 346.912 203.542 344.213 202.111 340.973Z" fill="#FFF5E7" stroke="#003485"/>
<path d="M0 420.882C0 421.502 0.44696 422 1.00354 422H341.087C341.643 422 342.09 421.502 342.09 420.882C342.09 420.262 341.643 419.764 341.087 419.764H1.00354C0.44696 419.764 0 420.262 0 420.882Z" fill="#CCCCCC"/>
<path d="M459.367 421.751H285.188C276.016 421.751 268.555 413.439 268.555 403.223V18.5276C268.555 8.31162 276.016 0 285.188 0H459.367C468.538 0 476 8.31162 476 18.5276V403.223C476 413.439 468.538 421.751 459.367 421.751ZM285.188 1.87862C276.933 1.87862 270.242 9.3324 270.242 18.5271V403.223C270.242 412.418 276.933 419.872 285.188 419.872H459.367C467.622 419.872 474.314 412.418 474.314 403.223V141.559C474.314 64.4156 418.171 1.87862 348.915 1.87862H285.188Z" fill="#003485"/>
<path d="M337.765 167.308C337.765 179.535 328.879 189.352 318.027 189.352C307.175 189.352 298.288 179.535 298.288 167.308C298.288 155.082 307.175 145.265 318.027 145.265C328.879 145.265 337.765 155.082 337.765 167.308Z" fill="#003485" stroke="#FFF5E7"/>
<path d="M446.266 167.308C446.266 179.535 437.38 189.352 426.528 189.352C415.676 189.352 406.789 179.535 406.789 167.308C406.789 155.082 415.676 145.265 426.528 145.265C437.38 145.265 446.266 155.082 446.266 167.308Z" fill="#FFF5E7" stroke="#021E49"/>
<path d="M392.016 167.308C392.016 179.535 383.129 189.352 372.277 189.352C361.425 189.352 352.539 179.535 352.539 167.308C352.539 155.082 361.425 145.265 372.277 145.265C383.129 145.265 392.016 155.082 392.016 167.308Z" fill="#FFF5E7" stroke="#021E49"/>
<path d="M337.765 232.121C337.765 244.347 328.879 254.164 318.027 254.164C307.175 254.164 298.288 244.347 298.288 232.121C298.288 219.895 307.175 210.077 318.027 210.077C328.879 210.077 337.765 219.895 337.765 232.121Z" fill="#FFF5E7" stroke="#021E49"/>
<path d="M446.266 232.121C446.266 244.347 437.38 254.164 426.528 254.164C415.676 254.164 406.789 244.347 406.789 232.121C406.789 219.895 415.676 210.077 426.528 210.077C437.38 210.077 446.266 219.895 446.266 232.121Z" fill="#003485" stroke="#FFF5E7"/>
<path d="M392.016 232.121C392.016 244.347 383.129 254.164 372.277 254.164C361.425 254.164 352.539 244.347 352.539 232.121C352.539 219.895 361.425 210.077 372.277 210.077C383.129 210.077 392.016 219.895 392.016 232.121Z" fill="#FFF5E7" stroke="#021E49"/>
<path d="M337.765 296.933C337.765 309.16 328.879 318.977 318.027 318.977C307.175 318.977 298.288 309.16 298.288 296.933C298.288 284.707 307.175 274.89 318.027 274.89C328.879 274.89 337.765 284.707 337.765 296.933Z" fill="#FFF5E7" stroke="#021E49"/>
<path d="M445.852 361.635C445.852 373.861 436.966 383.678 426.114 383.678C415.262 383.678 406.375 373.861 406.375 361.635C406.375 349.409 415.262 339.591 426.114 339.591C436.966 339.591 445.852 349.409 445.852 361.635Z" fill="#FFF5E7" stroke="#021E49"/>
<path d="M392.726 361.635C392.726 367.554 387.637 373.064 379.058 377.124C370.516 381.165 358.681 383.678 345.581 383.678C332.482 383.678 320.647 381.165 312.105 377.124C303.525 373.064 298.437 367.554 298.437 361.635C298.437 355.716 303.525 350.206 312.105 346.146C320.647 342.105 332.482 339.591 345.581 339.591C358.681 339.591 370.516 342.105 379.058 346.146C387.637 350.206 392.726 355.716 392.726 361.635Z" fill="#FFF5E7" stroke="#021E49"/>
<path d="M446.266 296.933C446.266 309.16 437.38 318.977 426.528 318.977C415.676 318.977 406.789 309.16 406.789 296.933C406.789 284.707 415.676 274.89 426.528 274.89C437.38 274.89 446.266 284.707 446.266 296.933Z" fill="#FFF5E7" stroke="#021E49"/>
<path d="M392.016 296.933C392.016 309.16 383.129 318.977 372.277 318.977C361.425 318.977 352.539 309.16 352.539 296.933C352.539 284.707 361.425 274.89 372.277 274.89C383.129 274.89 392.016 284.707 392.016 296.933Z" fill="#003485" stroke="#FFF5E7"/>
<path d="M376.255 26.3008H182.695C176.956 26.3008 172.289 31.4992 172.289 37.8922V117.094C172.289 123.487 176.956 128.686 182.695 128.686H376.255C381.994 128.686 386.661 123.487 386.661 117.094V37.8922C386.661 31.4992 381.994 26.3008 376.255 26.3008Z" fill="white"/>
<path d="M376.255 26.3008H182.695C176.956 26.3008 172.289 31.4992 172.289 37.8922V117.094C172.289 123.487 176.956 128.686 182.695 128.686H376.255C381.994 128.686 386.661 123.487 386.661 117.094V37.8922C386.661 31.4992 381.994 26.3008 376.255 26.3008ZM385.567 117.094C385.567 122.817 381.392 127.467 376.255 127.467H182.695C177.558 127.467 173.383 122.817 173.383 117.094V37.8922C173.383 32.1696 177.558 27.5197 182.695 27.5197H376.255C381.392 27.5197 385.567 32.1696 385.567 37.8922V117.094Z" fill="#3F3D56"/>
<path d="M370.092 73H258.908C257.854 73 257 74.567 257 76.5C257 78.433 257.854 80 258.908 80H370.092C371.146 80 372 78.433 372 76.5C372 74.567 371.146 73 370.092 73Z" fill="#E6E6E6"/>
<path d="M304.092 74H192.908C191.854 74 191 75.567 191 77.5C191 79.433 191.854 81 192.908 81H304.092C305.146 81 306 79.433 306 77.5C306 75.567 305.146 74 304.092 74Z" fill="#003485"/>
<path d="M57.3022 169.472L55.5781 180.908L70.8672 222.335L79.0702 217.637L71.0861 178.87L69.9386 164.075L57.3022 169.472Z" fill="#A0616A"/>
<path d="M74.1794 105.136C74.1794 105.136 66.1746 100.816 59.963 115.411C53.7515 130.005 54.5207 162.014 54.5207 162.014C54.5207 162.014 52.259 164.413 53.6947 166.093C55.1305 167.772 56.469 170.438 55.0044 173.51C54.2325 175.129 52.4459 178.298 55.3715 179.198C58.2971 180.098 71.9822 175.846 71.9822 175.846C71.9822 175.846 77.0995 173.292 74.1919 171.573C71.2844 169.853 75.3793 159.451 75.3793 159.451L78.7629 129.401L74.1794 105.136Z" fill="#003485"/>
<path d="M80.4647 238.163C83.6778 237.063 84.9353 231.286 83.2736 225.258C81.6119 219.231 77.6601 215.235 74.4471 216.334C71.2341 217.433 69.9765 223.211 71.6382 229.238C73.3 235.266 77.2517 239.262 80.4647 238.163Z" fill="#A0616A"/>
<path d="M156.24 415.711L163.902 413.42L159.616 379.409L148.308 382.79L156.24 415.711Z" fill="#A0616A"/>
<path d="M182.445 407.671C182.792 408.047 183.266 409.454 183.391 409.975C183.776 411.574 182.924 413.219 181.488 413.649L157.759 420.741C156.779 421.034 155.771 420.387 155.508 419.295L155.243 418.195C155.243 418.195 153.273 415.238 154.708 410.439C154.708 410.439 158.48 412.733 161.764 406.392L162.444 403.326L173.906 408.267L179.392 407.408C180.592 407.22 181.578 406.728 182.445 407.671Z" fill="#2F2E41"/>
<path d="M81.1324 415.515L89.0658 415.514L92.8398 381.428L81.1307 381.429L81.1324 415.515Z" fill="#A0616A"/>
<path d="M108.313 415.314C108.56 415.778 108.691 417.273 108.691 417.812C108.691 419.469 107.485 420.812 105.998 420.812H81.4291C80.4146 420.812 79.5922 419.896 79.5922 418.765V417.626C79.5922 417.626 78.3768 414.202 80.8791 409.981C80.8791 409.981 83.9892 413.286 88.6363 408.109L90.0068 405.344L99.9266 413.425L105.425 414.179C106.628 414.344 107.695 414.154 108.313 415.314Z" fill="#2F2E41"/>
<path d="M133.931 212.477L154.792 312.638L164.863 393.568L149.037 395.972L105.156 258.15L95.0854 395.972L77.1014 397.574C77.1014 397.574 62.7142 234.112 69.1884 214.08L133.931 212.477Z" fill="#2F2E41"/>
<path d="M158.762 94.0388L165.96 85.6612L174.226 41.8265L165.071 40.5742L152.107 77.6344L145.588 90.5884L158.762 94.0388Z" fill="#A0616A"/>
<path d="M112.332 136.675C112.332 136.675 119.069 150.51 131.572 142.331C144.075 134.151 157.298 101.948 157.298 101.948C157.298 101.948 159.939 93.7618 162.701 92.1381C164.157 91.2823 167.902 90.3594 165.937 87.783C163.972 85.2066 149.839 79.574 149.839 79.574C149.839 79.574 144.319 78.4811 145.855 81.7241C147.392 84.9671 142.345 82.9582 142.855 86.3904C143.364 89.8226 138.755 91.0054 138.755 91.0054L112.332 136.675Z" fill="#003485"/>
<path d="M177.073 35.6345C178.741 29.609 177.49 23.83 174.278 22.7267C171.066 21.6234 167.11 25.6137 165.442 31.6392C163.774 37.6647 165.025 43.4437 168.237 44.547C171.449 45.6502 175.405 41.66 177.073 35.6345Z" fill="#A0616A"/>
<path d="M113.227 88.74H93.531L92.734 95.6572C92.734 95.6572 67.8942 103.266 68.5152 107.416C69.1362 111.567 72.8622 180.738 72.8622 180.738L69.7572 215.324C69.7572 215.324 125.647 241.61 134.341 210.482L129.994 174.513C129.994 174.513 140.55 112.95 138.067 110.183C135.583 107.416 115.09 96.3489 115.09 96.3489L113.227 88.74Z" fill="#003485"/>
<path d="M101.786 88.8262C111.55 88.8262 119.465 80.0099 119.465 69.1345C119.465 58.259 111.55 49.4427 101.786 49.4427C92.0227 49.4427 84.1078 58.259 84.1078 69.1345C84.1078 80.0099 92.0227 88.8262 101.786 88.8262Z" fill="#A0616A"/>
<path d="M114.879 61.0344C117.137 60.8217 119.396 60.6089 121.655 60.3963C120.878 59.9996 120.07 59.5751 119.552 58.8179C119.035 58.0608 118.928 56.8644 119.553 56.2157C120.283 55.4577 121.493 55.8593 122.291 56.5271C121.851 53.9713 120.482 51.6296 118.56 50.1491C116.214 48.3407 110.408 50.4971 107.578 50.0819C104.314 49.6028 103.906 46.5026 100.642 46.0236C99.4114 45.8431 98.0266 45.7069 97.0591 46.5727C95.9859 47.533 95.8655 49.3486 94.9187 50.4615C93.5668 52.0506 91.2499 51.5818 89.326 52.0289C86.6012 52.6622 84.5471 55.3236 83.5984 58.2386C82.6497 61.1536 82.6148 64.324 82.5906 67.4246C82.5635 70.8994 82.5537 74.922 84.81 77.3219C86.1844 78.7841 89.9287 83.8005 90.3335 85.8691C90.6209 87.3382 102.336 89.1275 104.876 89.0461L113.53 85.8691C114.381 81.6973 112.974 73.4445 110.951 69.8075C111.617 70.7872 114.697 73.7368 115.168 72.6254C115.639 71.514 115.425 68.0306 116.011 66.9895C116.751 65.6755 113.491 61.165 114.879 61.0344Z" fill="#2F2E41"/>
</g>
<defs>
<clipPath id="clip0_162_229">
<rect width="476" height="422" fill="white"/>
</clipPath>
</defs>
</svg>
